<?xml version="1.0" encoding="UTF-8" standalone="no"?>
<svg
   version="1.1"
   x="0px"
   y="0px"
   style="margin: auto;"
   viewBox="0 0 89.184998 89.183998"
   enable-background="new 0 0 100 100"
   xml:space="preserve"
   id="svg4"
   sodipodi:docname="ww-maze.svg"
   width="200"
   height="200"
   inkscape:version="1.3.2 (091e20e, 2023-11-25, custom)"
   xmlns:inkscape="http://www.inkscape.org/namespaces/inkscape"
   xmlns:sodipodi="http://sodipodi.sourceforge.net/DTD/sodipodi-0.dtd"
   xmlns="http://www.w3.org/2000/svg"
   xmlns:svg="http://www.w3.org/2000/svg"><defs
   id="defs4" /><sodipodi:namedview
   id="namedview4"
   pagecolor="#ffffff"
   bordercolor="#000000"
   borderopacity="0.25"
   inkscape:showpageshadow="2"
   inkscape:pageopacity="0.0"
   inkscape:pagecheckerboard="0"
   inkscape:deskcolor="#d1d1d1"
   inkscape:zoom="90.509668"
   inkscape:cx="56.110028"
   inkscape:cy="53.905844"
   inkscape:window-width="1368"
   inkscape:window-height="890"
   inkscape:window-x="-6"
   inkscape:window-y="-6"
   inkscape:window-maximized="1"
   inkscape:current-layer="svg4" />
     <style
   id="style1">
     #maze {
      animation: draw 10s ease-in-out infinite;
      animation-direction: alternate;
     }
     @keyframes draw {
          0% {
            stroke-dasharray: 200, 200;
            stroke-dashoffset: 0;
          }
         60% {
            stroke-dasharray: 80, 80;
            stroke-dashoffset: 20px;
          }
          90% {
            stroke-dasharray: 100, 100;
            stroke-dashoffset: 70px;
          }
          100% {
            stroke-dasharray: 100, 100;
            stroke-dashoffset: 70px;
          }
        }
     
     </style>
     <path
   d="m 45.450123,31.646468 c 0.338666,0.114159 0.65889,0.219702 0.93112,0.47302 0.35368,0.329125 0.5305,0.585767 0.68459,0.995957 0.14988,0.399028 0.15509,0.582741 0.21393,1.012479 0.0874,0.638454 -0.0461,1.091162 -0.1922,1.505719 -0.14482,0.41153 -0.34004,0.708308 -0.6783,1.033067 -0.28427,0.272964 -0.65442,0.499293 -1.01103,0.608985 -0.44353,0.136383 -0.54062,0.172451 -1.11632,0.186739 -0.57877,0.01439 -0.73514,-0.04912 -1.19415,-0.190262 -0.34317,-0.105425 -0.70494,-0.326098 -0.9842,-0.584824 -0.34297,-0.317714 -0.53774,-0.634039 -0.67785,-1.027758 -0.14264,-0.400715 -0.1469,-0.542655 -0.20569,-0.986482 -0.0327,-0.874756 -0.0558,-1.194956 0.12163,-1.598312 0.15739,-0.357786 0.25811,-0.6408 0.46821,-0.863641 0.28859,-0.306088 1.259885,-0.719586 1.935327,-0.748163 0.743058,-0.04361 1.264508,0.03502 1.704933,0.183476 z m 11.728691,2.498085 c -0.06326,0.06079 -0.856911,1.636138 -1.146441,2.086664 -0.87357,1.359612 -1.81951,2.435445 -3.18215,3.291596 -1.11036,0.697642 -2.05313,1.085408 -3.32295,1.397267 -0.39188,0.09625 -1.12559,0.03274 -1.30231,0.383897 -0.18808,0.373626 -0.0554,1.547294 -0.0476,2.066432 0.0382,2.542259 0.0149,5.712455 -0.0476,7.7836 -0.16962,0.261504 -1.10054,0.04614 -1.43204,0.03373 -1.12113,-0.04167 -2.32342,-0.121152 -3.45278,-0.04663 -0.40583,0.02679 -1.10947,0.03225 -1.47973,0.05705 -0.40637,0.02679 -0.93146,0.04614 -1.32399,0.064 V 49.75644 43.655722 c 0,-0.647979 0.16908,-1.812567 -0.0451,-2.33374 -0.11674,-0.284226 -1.4119,-0.513135 -1.82417,-0.646144 -1.45214,-0.468287 -3.76113,-1.507605 -4.42498,-3.068939 -0.11257,-0.264878 -0.14274,-0.413862 -0.17632,-0.674969 -0.0293,-0.229008 0.0556,-0.46139 0.11624,-0.649022 0.17939,-0.555107 1.23448,-1.532295 1.78513,-1.86987 0.59905,-0.367247 1.10555,-0.761244 2.13757,-1.166622 0.33984,-0.133456 1.21918,-0.521032 1.88403,-0.702354 0.69279,-0.188942 2.39804,-0.743885 2.46521,-0.753555 m 5.7934,19.446247 c 0.0651,0.06971 0.0847,0.170466 0.364,0.273559 0.61563,0.227272 3.0166,0.827184 3.81564,1.153181 1.10317,0.450031 2.19642,1.055987 3.19317,1.6935 0.35001,0.223847 1.548101,1.039645 1.829246,1.295283 M 41.132483,51.055541 c -1.05483,0.256656 -3.27422,0.995594 -4.79233,1.607353 -1.15923,0.467149 -2.28661,1.079306 -3.32296,1.776803 -0.33884,0.228116 -1.070395,0.843779 -1.353985,1.085482"
   style="fill:none !important; !important;stroke-width:1.98447;stroke-dasharray:none"
   id="human"
   stroke="hsl(var(--primary))"
   sodipodi:nodetypes="ssccccccccccsscsccsscsccscccscccccscsccccsccscc" /><path
   stroke="currentColor"
   style="fill:none !important;stroke-width:1.98447;stroke-dasharray:none"
   d="m 44.018342,4.8659104 c 5.184632,-0.345199 10.681777,1.017836 15.446548,2.9112723 4.748295,1.886837 9.140924,4.8485643 12.798557,8.4196243 3.822891,3.732447 6.992148,8.277039 8.977165,13.241695 2.418229,6.048377 3.435466,12.508582 2.819242,19.029164 -0.370899,3.924894 -1.384223,7.723622 -2.845191,11.370735 -1.231611,3.074444 -2.953091,6.0388 -4.961281,8.670811 C 72.657268,73.222482 68.132569,77.05897 62.917621,79.84338 58.075359,82.4288 52.636362,83.92951 47.159564,84.28449 41.206738,84.67027 35.088262,83.78896 29.584226,81.47745 24.485121,79.3359 19.753789,76.27053 15.907433,72.247559 12.408459,68.587841 9.7255008,64.387158 7.7201407,59.760511 6.2300992,56.322708 5.2585014,52.467966 4.9444085,48.727235 4.3946102,42.178721 5.1522819,35.657742 7.6750442,29.568336 8.9519533,26.486201 10.607996,23.540152 12.609238,20.871531 15.41191,17.134272 18.828429,13.888815 22.730648,11.336435 24.837215,9.9586147 27.062554,8.8040977 29.376551,7.8283827 34.111157,5.8320514 38.936998,5.2043124 44.018342,4.8659104 M 33.374471,76.99834 c 1.201102,-3.092557 2.935185,-6.00447 4.160551,-9.086211 0.190552,-0.479196 0.138807,-0.551184 0.216306,-0.960533 0.03871,-0.205591 0.114351,-1.245653 0.114351,-1.661503 0,-1.038073 2.51e-4,-2.309926 0,-3.32295 0,-0.417978 0.01437,-0.514624 -0.165503,-0.800582 -0.112419,-0.178603 -1.368592,-0.786547 -1.677723,-0.946693 -1.312134,-0.679737 -2.578526,-1.702087 -3.712354,-2.673334 -1.236079,-1.058818 -1.335253,-1.399158 -2.094413,-2.386428 -0.857392,-1.115076 -1.64116,-2.587903 -2.190115,-3.888726 -0.154391,-0.365838 -0.356512,-1.389877 -0.36961,-1.479773 -0.08543,-0.584675 -0.05016,-0.261702 -0.116737,-0.830601 -0.02431,-0.209312 0.04317,-0.35924 0.114157,-0.386774 0.05179,-0.02034 1.066607,-0.02877 1.22993,-0.02877 1.873541,0 3.919334,0.552427 4.65602,-1.375885 0.254509,-0.666138 0.355469,-1.293628 0.417881,-1.99896 0.04564,-0.517898 0.137771,-0.82564 -0.02034,-1.39816 C 33.769133,43.165254 31.953737,43.53506 31.29767,43.53506 h -7.528547 c -0.461292,0 -2.19706,-0.240717 -2.458416,0.0893 -0.267655,0.337956 -0.05472,1.478483 -0.03721,1.935655 0.07248,1.884704 0.357403,3.903261 0.937564,5.685368 1.264209,3.883367 3.325233,7.484344 6.360735,10.323529 0.908095,0.849356 1.865008,1.599288 2.881604,2.30323 0.301044,0.208466 0.58666,0.449033 0.694318,0.742985 0.09218,0.251777 0.05621,0.279163 0.02133,0.467246 -0.02729,0.148538 -0.111279,0.643757 -0.222905,0.908641 -0.529607,1.256319 -1.236427,2.479845 -1.872004,3.686407 -0.633543,1.202536 -1.218466,2.46913 -1.866248,3.66031 -0.164116,0.301786 -0.241709,0.403692 -0.519041,0.516557 -0.352145,0.143382 -0.328232,0.0595 -0.648823,-0.01542 -0.227967,-0.05329 -0.425472,-0.07977 -0.674969,-0.172799 -0.887011,-0.330713 -1.76891,-1.144242 -2.518148,-1.707933 -3.425694,-2.577233 -6.420759,-5.843876 -8.618514,-9.523733 -0.918662,-1.538216 -1.710219,-3.127431 -2.414509,-4.776727 -2.115994,-4.955128 -3.0581728,-10.788389 -2.435742,-16.173455 0.397589,-3.440084 1.095429,-6.831649 2.469131,-10.020797 1.456504,-3.381294 3.34994,-6.535763 5.783747,-9.31988 3.507061,-4.011811 7.878359,-7.136612 12.770385,-9.196991 3.032772,-1.277257 6.322234,-2.102302 9.605444,-2.405181 5.66463,-0.522512 11.276426,0.269193 16.536917,2.391637 2.563936,1.034456 5.023643,2.448294 7.242977,4.087816 4.980784,3.679561 9.076986,8.768048 11.367311,14.52049 1.378168,3.461417 2.264383,7.065518 2.512742,10.799602 0.349219,5.251165 -0.561808,10.459213 -2.509268,15.316759 -1.395133,3.479873 -3.454817,6.732572 -5.927275,9.553503 -1.993304,2.274204 -4.281697,4.270536 -6.793448,5.944937 -0.349366,0.232929 -0.875898,0.637611 -1.272098,0.749535 -0.196363,0.05553 -0.408002,0.100019 -0.597076,0.141739 -0.262449,0.0579 -0.273708,0.0891 -0.493237,0.0248 -0.24672,-0.0722 -0.486052,-0.249205 -0.63141,-0.475487 -0.478854,-0.745314 -1.117162,-1.590059 -1.448817,-2.413611 -0.09947,-0.24702 -0.143676,-0.539284 -0.193684,-0.752814 -0.0685,-0.29241 -0.13405,-0.259764 0,-0.596978 0.104131,-0.26448 0.215413,-0.382953 0.458561,-0.534568 0.766451,-0.477856 1.554833,-0.982659 2.283929,-1.526455 1.694937,-1.264208 3.295912,-2.853674 4.750784,-4.403296 M 35.712181,17.237068 c 4.799599,-1.703969 10.378994,-1.771292 15.316759,-0.624216 3.423964,0.795376 7.886894,2.498402 12.097649,6.121256 4.556891,3.920724 8.043712,9.294777 9.327968,15.193524 0.737474,3.387447 1.030979,7.011393 0.537491,10.462143 -0.23392,1.635652 -0.558132,3.25285 -1.06373,4.828668 -0.231185,0.720467 -0.630859,1.655999 -0.83184,2.362417 M 57.610644,19.522436 c -0.385038,2.07184 -1.937338,4.421209 -0.922285,5.291846 1.015061,0.870638 2.765363,1.918689 3.997923,3.097019 2.826978,2.702605 4.832288,6.271184 6.048824,9.912494 M 24.96447,65.731446 C 21.843588,62.924257 19.561047,59.385294 17.900787,55.58086 16.80387,53.067379 16.131579,50.240694 15.893393,47.507081 c -0.409198,-4.696702 0.176221,-9.335309 1.932976,-13.707153 1.534494,-3.818722 3.973759,-7.32484 6.982369,-10.170872 0.748841,-0.708408 1.679113,-1.719249 2.622035,-2.129836 0.216407,-0.09421 0.524251,-0.156972 0.700918,-0.202714 0.298862,-0.07735 0.243247,-0.183415 0.596979,-0.06544 0.221071,0.07377 0.385434,0.232382 0.492596,0.497508 0.355469,0.879518 0.844443,1.930743 1.053557,2.829362 0.05541,0.238336 0.106219,0.591622 0.1342,0.804754 0.02828,0.2172 0.0387,0.24404 -0.05224,0.493241 -0.09977,0.273361 -0.231439,0.450872 -0.460447,0.638901 -0.633593,0.520229 -1.256122,1.077221 -1.840699,1.650089 -1.518917,1.488504 -3.339125,3.562924 -4.097989,5.577114 -0.121152,0.321584 -0.114404,0.440504 -0.171755,0.726863 -0.0514,0.256791 -0.162826,0.791706 -0.175974,0.908294 -0.02381,0.210602 -0.103887,0.332349 0.316524,0.360082 1.056137,0.06966 3.1058,0.08226 4.231197,0.08156 0.349118,-2.48e-4 0.473148,0 0.778509,-0.148588 0.210105,-0.101208 0.316076,-0.185349 0.443876,-0.372138 0.284326,-0.415499 0.61484,-0.931263 0.929726,-1.3484 0.825045,-1.092899 2.372338,-2.404774 3.436661,-3.279679 3.721656,-2.846913 5.120859,-2.27143 4.865054,-3.227458 -0.04363,-0.258087 -0.185043,-0.657257 -0.237859,-0.921936 -0.0685,-0.344008 -0.990251,-3.078663 -0.800736,-3.81143 0.0293,-0.112867 0.57684,-0.457569 0.917124,-0.539776 0.723592,-0.174733 1.630343,-0.381763 2.414365,-0.50366 2.329618,-0.362166 4.968172,-0.398135 7.294923,0.0253 1.75596,0.319352 3.643786,0.918513 5.321905,1.498178 0.659794,0.144519 2.42607,1.204674 3.087796,1.342198 m -18.411933,3.599302 c 0.360032,-0.03622 3.224267,-0.767127 3.715425,-0.848044 2.94511,-0.485154 5.743129,-0.04939 8.565643,0.882472 3.500417,1.155609 8.03684,5.253288 9.697297,8.510602 0.191054,0.403344 0.468934,0.99943 0.593755,1.323991 M 56.19635,49.50644 c -0.563447,-0.242453 -1.168957,-0.462928 -1.738849,-0.701561 -0.176468,-0.07392 -0.329276,-0.185846 -0.421103,-0.339693 -0.18193,-0.304666 -0.150526,-0.461985 -0.150526,-0.879815 0,-0.745369 -0.05567,-2.028033 0.0056,-2.670209 0.02183,-0.228214 0.08538,-0.237243 0.332498,-0.226031 0.522312,0.02381 0.57232,0.03572 0.985931,0.06395 1.556374,0.106269 3.734433,0.461886 5.347909,0.692383 0.48982,0.07 1.310296,0.02133 1.483744,0.382061 0.212086,0.441347 0.0063,0.762285 -0.02232,1.108825 -0.127702,1.548037 -0.600996,3.144199 -1.194752,4.620994 -0.403042,1.002363 -0.948429,2.80967 -2.89326,4.909394 -1.92013,2.073126 -4.795184,3.777292 -6.770973,4.59043 -1.483841,0.610671 -3.05222,0.997593 -4.646946,1.172925 -0.425274,0.04667 -1.711309,-0.09302 -1.965171,0.199935 -0.217848,0.251386 -0.05971,1.057876 -0.05971,1.354751 v 4.25754 0.908641 0.363352 c -0.0049,0.239081 -0.04464,0.302036 -0.07303,0.342125 -0.06299,0.08831 -0.717886,0.314836 -0.952155,0.697887 -0.94188,1.539807 -2.120009,3.854596 -3.019323,5.502156 -0.138766,0.25426 -0.390494,0.68271 -0.459406,0.93459 -0.04464,0.16391 -0.0901,0.39957 -0.132215,0.59708 -0.05246,0.24558 -0.168384,0.72304 -0.150129,0.8561 0.02435,0.17846 0.02379,0.25064 0.32223,0.32937 0.420761,0.11108 1.492178,0.1803 2.05026,0.2106 1.663087,0.0903 3.907924,0.0707 5.503689,-0.0577 0.214771,-0.0174 0.980971,-0.0977 1.086198,-0.13942 0.160843,-0.0638 0.232978,-0.0798 0.232531,-0.34256 -2.93e-4,-0.1796 -0.0886,-0.52078 -0.150519,-0.83041 -0.05929,-0.29643 -0.05085,-0.4151 -0.168035,-0.75286 C 47.858399,74.58561 46.477503,72.329709 45.45456,70.405164 45.242963,70.00708 44.928524,69.907015 44.489012,69.703851 M 67.619863,46.780606 c -0.0466,1.269865 -0.553172,3.58381 -0.984543,4.932507 -0.7864,2.458817 -1.943345,4.737437 -3.497981,6.801683 -1.590757,2.112175 -3.529435,3.973961 -5.719946,5.434386 -1.294078,0.862797 -2.721264,1.615561 -4.153702,2.203953 -0.508277,0.208765 -1.620075,0.532538 -2.019749,0.732619 -0.100811,0.05043 -0.249845,0.183214 -0.293156,0.352197 -0.09898,0.386079 0.0049,0.286258 0.08588,0.726467 0.06041,0.319698 0.04715,0.524397 0.21517,0.934583 1.103713,2.694519 2.403545,5.502499 3.777145,8.073779"
   id="maze" /></svg>
