<svg xmlns="http://www.w3.org/2000/svg">
  <symbol id="ying-yang">
    <path
      d="M 17.240726,0.04062422 C 16.840724,0 16.440722,0 16.00008,0 7.2000358,0 0,7.2000396 0,16.000088 0,24.400134 6.5204326,31.320571 14.759273,31.959375 15.159275,32 15.599918,32 15.99992,32 24.799963,32 32,24.79996 32,15.999912 32,7.5998656 25.479566,0.67942773 17.240726,0.04062422 Z M 13.520387,23.679954 c 0,-1.359368 1.120326,-2.479694 2.479693,-2.479694 1.359366,0 2.479692,1.120326 2.479692,2.479694 0,1.359367 -1.120326,2.479693 -2.479692,2.479693 -1.359367,0 -2.479693,-1.118766 -2.479693,-2.479693 z M 1.6407282,16.000312 C 1.6407282,8.0798682 8.0815602,1.641033 16,1.641033 c 0.359378,0 0.720323,0 1.120325,0.040624 4.440822,0.4000022 7.920439,3.2796979 7.920439,6.7204368 0,3.7593812 -4.040819,6.8000372 -9.000044,6.8000372 -5.879629,0 -10.6408532,3.759381 -10.6408532,8.400046 0,0.920325 0.2000014,1.80001 0.5593629,2.640655 C 3.240456,23.641258 1.6404082,20.000798 1.6404082,16.000776 Z"
      id="path1" style="stroke-width:0.400003" />
    <path
      d="m 15.99992,10.840683 c 1.359366,0 2.479692,-1.1203257 2.479692,-2.4796931 0,-1.3593675 -1.120326,-2.4796938 -2.479692,-2.4796938 -1.359367,0 -2.479693,1.1203263 -2.479693,2.4796938 0,1.3593674 1.120326,2.4796931 2.479693,2.4796931 z"
      id="path2" style="stroke-width:0.400003" />
  </symbol>
  <symbol id="stoic-symbol">
    <path
      d="M 13.233704,29.92473 C 11.663835,29.387546 10.561392,28.697784 9.4694543,27.569552 l -0.945536,-0.976963 -0.506527,0.269322 c -0.245825,0.130704 -5.232099,1.69845 -7.46162002,-2.832356 -0.495939,-1.007842 -0.560779,-1.300925 -0.55548900024,-2.510768 0.0083,-1.889085 0.47525800024,-2.84936 2.37131102024,-4.876081 1.722911,-1.841646 3.108592,-3.872401 3.785459,-5.547699 0.394801,-0.97717 0.48453,-1.4613191 0.490721,-2.6478841 0.0067,-1.277247 -0.0492,-1.552884 -0.464023,-2.289489 -0.259382,-0.460584 -0.443281,-0.865747 -0.408672,-0.900359 0.139143,-0.13914 1.486041,1.505731 1.896942,2.316606 1.052307,2.076626 0.950736,3.6063711 -0.419539,6.3186051 -0.456858,0.904272 -0.953808,2.020918 -1.104335,2.481442 -0.625246,1.912854 -0.155941,3.860543 0.930213,3.860543 0.07561,0 0.189144,-0.344629 0.25231,-0.765842 0.182304,-1.21571 1.195983,-3.041327 2.303847,-4.149192 1.5469377,-1.546938 3.8989367,-2.624514 5.6374627,-2.582817 l 0.780441,0.0187 -0.683326,0.1379 c -2.217449,0.447493 -3.502037,1.936762 -3.502037,4.06004 0,3.078101 3.200648,5.048793 5.924698,3.647936 1.447855,-0.744568 2.179774,-1.984382 2.183058,-3.697947 0.003,-1.537844 -0.478437,-2.585445 -2.040984,-4.441611 -2.558427,-3.0391781 -3.336432,-4.5489891 -3.330949,-6.4640941 0.0034,-1.188216 0.413167,-2.850808 0.944725,-3.833177 0.240093,-0.443715 0.378211,-0.614568 0.306928,-0.379674 -0.07128,0.234893 -0.132795,1.118945 -0.136693,1.964557 -0.01059,2.300315 0.317718,2.882325 3.442078,6.101817 1.393391,1.4358161 2.90928,3.1762971 3.368646,3.8677441 1.070002,1.610587 1.787608,3.467631 2.031705,5.257716 0.189807,1.391947 0.200738,1.414992 0.625936,1.319985 0.939059,-0.20982 1.943599,-0.989266 2.387962,-1.85287 0.829023,-1.611175 0.455656,-4.791085 -0.941453,-8.018226 C 26.31058,9.6813219 26.087413,9.0321189 26.13679,8.9827409 c 0.164892,-0.164895 2.474078,2.2672031 3.340485,3.5182981 1.483134,2.14164 2.300838,4.461338 2.488681,7.059983 0.250586,3.466696 -0.883558,5.89542 -3.357448,7.18986 -0.63831,0.333989 -3.214974,0.931986 -5.313058,-0.213391 l -0.802803,0.893787 c -1.020979,1.136689 -2.523279,2.109772 -3.926141,2.543073 -1.553495,0.479825 -3.847893,0.458469 -5.332802,-0.04964 z"
      style="fill:#000000;stroke-width:0.377043" id="path1-5" />
  </symbol>
  <symbol id="neural-network">
    <!-- Alternative https://thenounproject.com/icon/data-2994678/ -->
    <path
      d="m 28.542616,12.584038 c -1.024344,0 -1.944156,0.445862 -2.577393,1.153765 L 21.684381,10.907612 C 21.894157,10.461395 22.0122,9.9636228 22.0122,9.4381175 c 0,-1.9093121 -1.547716,-3.4570283 -3.457028,-3.4570283 -1.220253,0 -2.291886,0.6328819 -2.907346,1.5875379 L 6.7889023,5.490428 C 6.8699681,5.1967424 6.9140565,4.8881236 6.9140565,4.5688383 6.9140565,2.6595261 5.3663404,1.11181 3.4570283,1.11181 1.5477161,1.11181 0,2.6591706 0,4.5684827 0,6.4777948 1.5477161,8.025511 3.4570283,8.025511 c 0.6005266,0 1.1651426,-0.1532428 1.657226,-0.4227509 L 9.6518039,12.785991 6.3906845,14.212464 C 5.7798469,13.234698 4.6947034,12.584038 3.4570283,12.584038 1.5477161,12.584038 0,14.131754 0,16.041066 c 0,1.909312 1.5477161,3.457029 3.4570283,3.457029 1.2433639,0 2.332774,-0.656704 2.9418339,-1.641582 l 3.2934746,1.427184 -4.4710615,5.174698 C 4.7046588,24.151198 4.1016433,23.974134 3.4570283,23.974134 1.5477161,23.974134 0,25.52185 0,27.431162 c 0,1.909312 1.5477161,3.457028 3.4570283,3.457028 1.9093121,0 3.4570282,-1.547716 3.4570282,-3.457028 0,-0.321063 -0.044799,-0.63146 -0.1265764,-0.926212 l 8.8585679,-2.063621 c 0.614749,0.956433 1.687804,1.590382 2.909124,1.590382 1.909312,0 3.457028,-1.547716 3.457028,-3.457028 0,-0.519461 -0.115199,-1.0119 -0.320708,-1.454206 l 4.263064,-2.788592 C 26.587793,19.0469 27.512583,19.49845 28.542972,19.49845 30.452284,19.49845 32,17.950734 32,16.041422 31.999644,14.131754 30.451928,12.584038 28.542616,12.584038 Z m -12.444306,-0.714303 -2.940767,3.40334 -1.853846,-2.118021 4.317818,-1.888335 c 0.136532,0.218665 0.29653,0.420973 0.476795,0.603016 z M 5.9146009,6.9990335 C 6.0881101,6.8237465 6.2424195,6.6296154 6.3753958,6.420551 l 8.8532352,2.0771325 c -0.08462,0.2990189 -0.130488,0.6143932 -0.130488,0.9407895 0,0.3160854 0.04338,0.621504 0.122666,0.912346 l -4.607949,2.015266 z m 0.8810569,9.9394455 c 0.076799,-0.286219 0.1183987,-0.587016 0.1183987,-0.897413 0,-0.316085 -0.043377,-0.621504 -0.1226653,-0.912345 l 3.5512498,-1.553049 2.154998,2.461483 -2.119799,2.453662 z m 8.8173242,3.820757 -4.274086,-1.852068 1.823624,-2.110554 2.932235,3.349651 c -0.182398,0.185243 -0.344174,0.390751 -0.481773,0.612971 z M 6.372907,25.574827 C 6.2623304,25.401673 6.1371763,25.238831 5.9985111,25.088432 l 4.6555929,-5.388029 4.562438,1.976867 c -0.0768,0.286219 -0.118399,0.587016 -0.118399,0.897413 0,0.324974 0.04587,0.638926 0.129777,0.937234 z m 14.770325,-5.290963 c -0.633238,-0.715015 -1.557672,-1.166565 -2.58806,-1.166565 -0.601949,0 -1.167632,0.153954 -1.660426,0.424528 L 13.82278,16.032533 16.898657,12.47275 c 0.491728,0.269153 1.056343,0.42204 1.656515,0.42204 1.024344,0 1.944156,-0.445862 2.577393,-1.153765 l 4.280842,2.830191 c -0.209776,0.446217 -0.327819,0.94399 -0.327819,1.469495 0,0.519461 0.115554,1.0119 0.320707,1.454206 z"
      id="path1" style="stroke-width:0.355552" />
  </symbol>
  <symbol id="magnifier">
    <path id="path6" style="stroke-width:0.336842"
      d="m 15.36,9.6000003 c -3.166316,0 -5.7600001,2.5936837 -5.7600001,5.7599997 0,3.166316 2.5936861,5.76 5.7600001,5.76 3.166316,0 5.76,-2.593684 5.76,-5.76 0.03368,-3.166316 -2.56,-5.7599997 -5.76,-5.7599997 z m 5.187369,13.3389477 c -1.482107,1.010527 -3.233682,1.616842 -5.153686,1.616842 -5.052634,0 -9.1621053,-4.109474 -9.1621053,-9.162106 0,-5.052631 4.1094723,-9.1621052 9.1621053,-9.1621052 5.052634,0 9.162105,4.1094742 9.162105,9.1621052 0,1.920001 -0.606315,3.705264 -1.616843,5.153685 l 5.524212,5.490527 C 30.686316,23.27579 32,19.806316 32,16 32,7.174737 24.825263,0 16,0 7.1747369,0 0,7.174737 0,16 c 0,8.825264 7.1747369,16 16,16 3.806317,0 7.309474,-1.347375 10.037895,-3.536843 z m 11.44656,9.034317 h -0.0261 c -0.0036,0 -0.0061,0.0053 -0.0061,0.01324 0,0.0079 0.0024,0.01324 0.0061,0.01324 h 0.0261 c 0.0036,0 0.0061,-0.0053 0.0061,-0.01324 0,-0.0066 -0.0024,-0.01324 -0.0061,-0.01324 z m 0,-0.0437 h -0.0261 c -0.0036,0 -0.0061,0.0053 -0.0061,0.01324 0,0.0079 0.0024,0.01324 0.0061,0.01324 h 0.0261 c 0.0036,0 0.0061,-0.0053 0.0061,-0.01324 0,-0.0079 -0.0024,-0.01324 -0.0061,-0.01324 z m -0.0261,-0.04502 c -0.0036,0 -0.0061,0.0053 -0.0061,0.01324 0,0.0079 0.0024,0.01324 0.0061,0.01324 h 0.0261 c 0.0036,0 0.0061,-0.0053 0.0061,-0.01324 0,-0.0079 -0.0024,-0.01324 -0.0061,-0.01324 z m 0.02853,-0.13507 v -0.02649 c 0,-0.03708 -0.03035,-0.05297 -0.05889,-0.05297 -0.02853,0 -0.05889,0.01721 -0.05889,0.05297 v 0.02649 c 0,0.02384 0.0042,0.04767 0.01214,0.06489 l 0.03035,0.06489 c 0.0018,0.004 0.0024,0.0079 0.0024,0.01324 v 0.08475 c 0,0.0053 0.0012,0.0093 0.0036,0.01059 l 0.01761,0.01192 c 0.003,0.0013 0.0061,-0.0026 0.0061,-0.01059 v -0.09534 c 0,-0.0053 0.0012,-0.0093 0.0024,-0.01324 l 0.03096,-0.06621 c 0.0079,-0.01721 0.01214,-0.04105 0.01214,-0.06489 z m -0.05889,-0.0013 c -0.02914,0 -0.04492,-0.01721 -0.04553,-0.02383 v 0 c 6.07e-4,-0.0066 0.01639,-0.02384 0.04553,-0.02384 0.02914,0 0.04432,0.01721 0.04553,0.02384 -0.0012,0.0066 -0.01639,0.02383 -0.04553,0.02383 z" />
  </symbol>
</svg>