<svg xmlns="http://www.w3.org/2000/svg">
  <symbol id="ying-yang">
    <path
      d="M 17.240726,0.04062422 C 16.840724,0 16.440722,0 16.00008,0 7.2000358,0 0,7.2000396 0,16.000088 0,24.400134 6.5204326,31.320571 14.759273,31.959375 15.159275,32 15.599918,32 15.99992,32 24.799963,32 32,24.79996 32,15.999912 32,7.5998656 25.479566,0.67942773 17.240726,0.04062422 Z M 13.520387,23.679954 c 0,-1.359368 1.120326,-2.479694 2.479693,-2.479694 1.359366,0 2.479692,1.120326 2.479692,2.479694 0,1.359367 -1.120326,2.479693 -2.479692,2.479693 -1.359367,0 -2.479693,-1.118766 -2.479693,-2.479693 z M 1.6407282,16.000312 C 1.6407282,8.0798682 8.0815602,1.641033 16,1.641033 c 0.359378,0 0.720323,0 1.120325,0.040624 4.440822,0.4000022 7.920439,3.2796979 7.920439,6.7204368 0,3.7593812 -4.040819,6.8000372 -9.000044,6.8000372 -5.879629,0 -10.6408532,3.759381 -10.6408532,8.400046 0,0.920325 0.2000014,1.80001 0.5593629,2.640655 C 3.240456,23.641258 1.6404082,20.000798 1.6404082,16.000776 Z"
      id="path1" style="stroke-width:0.400003" />
    <path
      d="m 15.99992,10.840683 c 1.359366,0 2.479692,-1.1203257 2.479692,-2.4796931 0,-1.3593675 -1.120326,-2.4796938 -2.479692,-2.4796938 -1.359367,0 -2.479693,1.1203263 -2.479693,2.4796938 0,1.3593674 1.120326,2.4796931 2.479693,2.4796931 z"
      id="path2" style="stroke-width:0.400003" />
  </symbol>
  <symbol id="stoic-symbol">
    <path
      d="M 13.233704,29.92473 C 11.663835,29.387546 10.561392,28.697784 9.4694543,27.569552 l -0.945536,-0.976963 -0.506527,0.269322 c -0.245825,0.130704 -5.232099,1.69845 -7.46162002,-2.832356 -0.495939,-1.007842 -0.560779,-1.300925 -0.55548900024,-2.510768 0.0083,-1.889085 0.47525800024,-2.84936 2.37131102024,-4.876081 1.722911,-1.841646 3.108592,-3.872401 3.785459,-5.547699 0.394801,-0.97717 0.48453,-1.4613191 0.490721,-2.6478841 0.0067,-1.277247 -0.0492,-1.552884 -0.464023,-2.289489 -0.259382,-0.460584 -0.443281,-0.865747 -0.408672,-0.900359 0.139143,-0.13914 1.486041,1.505731 1.896942,2.316606 1.052307,2.076626 0.950736,3.6063711 -0.419539,6.3186051 -0.456858,0.904272 -0.953808,2.020918 -1.104335,2.481442 -0.625246,1.912854 -0.155941,3.860543 0.930213,3.860543 0.07561,0 0.189144,-0.344629 0.25231,-0.765842 0.182304,-1.21571 1.195983,-3.041327 2.303847,-4.149192 1.5469377,-1.546938 3.8989367,-2.624514 5.6374627,-2.582817 l 0.780441,0.0187 -0.683326,0.1379 c -2.217449,0.447493 -3.502037,1.936762 -3.502037,4.06004 0,3.078101 3.200648,5.048793 5.924698,3.647936 1.447855,-0.744568 2.179774,-1.984382 2.183058,-3.697947 0.003,-1.537844 -0.478437,-2.585445 -2.040984,-4.441611 -2.558427,-3.0391781 -3.336432,-4.5489891 -3.330949,-6.4640941 0.0034,-1.188216 0.413167,-2.850808 0.944725,-3.833177 0.240093,-0.443715 0.378211,-0.614568 0.306928,-0.379674 -0.07128,0.234893 -0.132795,1.118945 -0.136693,1.964557 -0.01059,2.300315 0.317718,2.882325 3.442078,6.101817 1.393391,1.4358161 2.90928,3.1762971 3.368646,3.8677441 1.070002,1.610587 1.787608,3.467631 2.031705,5.257716 0.189807,1.391947 0.200738,1.414992 0.625936,1.319985 0.939059,-0.20982 1.943599,-0.989266 2.387962,-1.85287 0.829023,-1.611175 0.455656,-4.791085 -0.941453,-8.018226 C 26.31058,9.6813219 26.087413,9.0321189 26.13679,8.9827409 c 0.164892,-0.164895 2.474078,2.2672031 3.340485,3.5182981 1.483134,2.14164 2.300838,4.461338 2.488681,7.059983 0.250586,3.466696 -0.883558,5.89542 -3.357448,7.18986 -0.63831,0.333989 -3.214974,0.931986 -5.313058,-0.213391 l -0.802803,0.893787 c -1.020979,1.136689 -2.523279,2.109772 -3.926141,2.543073 -1.553495,0.479825 -3.847893,0.458469 -5.332802,-0.04964 z"
      style="fill:#000000;stroke-width:0.377043" id="path1-5" />
  </symbol>
  <symbol id="neural-network">
    <!-- Alternative https://thenounproject.com/icon/data-2994678/ -->
    <path
      d="m 28.542616,12.584038 c -1.024344,0 -1.944156,0.445862 -2.577393,1.153765 L 21.684381,10.907612 C 21.894157,10.461395 22.0122,9.9636228 22.0122,9.4381175 c 0,-1.9093121 -1.547716,-3.4570283 -3.457028,-3.4570283 -1.220253,0 -2.291886,0.6328819 -2.907346,1.5875379 L 6.7889023,5.490428 C 6.8699681,5.1967424 6.9140565,4.8881236 6.9140565,4.5688383 6.9140565,2.6595261 5.3663404,1.11181 3.4570283,1.11181 1.5477161,1.11181 0,2.6591706 0,4.5684827 0,6.4777948 1.5477161,8.025511 3.4570283,8.025511 c 0.6005266,0 1.1651426,-0.1532428 1.657226,-0.4227509 L 9.6518039,12.785991 6.3906845,14.212464 C 5.7798469,13.234698 4.6947034,12.584038 3.4570283,12.584038 1.5477161,12.584038 0,14.131754 0,16.041066 c 0,1.909312 1.5477161,3.457029 3.4570283,3.457029 1.2433639,0 2.332774,-0.656704 2.9418339,-1.641582 l 3.2934746,1.427184 -4.4710615,5.174698 C 4.7046588,24.151198 4.1016433,23.974134 3.4570283,23.974134 1.5477161,23.974134 0,25.52185 0,27.431162 c 0,1.909312 1.5477161,3.457028 3.4570283,3.457028 1.9093121,0 3.4570282,-1.547716 3.4570282,-3.457028 0,-0.321063 -0.044799,-0.63146 -0.1265764,-0.926212 l 8.8585679,-2.063621 c 0.614749,0.956433 1.687804,1.590382 2.909124,1.590382 1.909312,0 3.457028,-1.547716 3.457028,-3.457028 0,-0.519461 -0.115199,-1.0119 -0.320708,-1.454206 l 4.263064,-2.788592 C 26.587793,19.0469 27.512583,19.49845 28.542972,19.49845 30.452284,19.49845 32,17.950734 32,16.041422 31.999644,14.131754 30.451928,12.584038 28.542616,12.584038 Z m -12.444306,-0.714303 -2.940767,3.40334 -1.853846,-2.118021 4.317818,-1.888335 c 0.136532,0.218665 0.29653,0.420973 0.476795,0.603016 z M 5.9146009,6.9990335 C 6.0881101,6.8237465 6.2424195,6.6296154 6.3753958,6.420551 l 8.8532352,2.0771325 c -0.08462,0.2990189 -0.130488,0.6143932 -0.130488,0.9407895 0,0.3160854 0.04338,0.621504 0.122666,0.912346 l -4.607949,2.015266 z m 0.8810569,9.9394455 c 0.076799,-0.286219 0.1183987,-0.587016 0.1183987,-0.897413 0,-0.316085 -0.043377,-0.621504 -0.1226653,-0.912345 l 3.5512498,-1.553049 2.154998,2.461483 -2.119799,2.453662 z m 8.8173242,3.820757 -4.274086,-1.852068 1.823624,-2.110554 2.932235,3.349651 c -0.182398,0.185243 -0.344174,0.390751 -0.481773,0.612971 z M 6.372907,25.574827 C 6.2623304,25.401673 6.1371763,25.238831 5.9985111,25.088432 l 4.6555929,-5.388029 4.562438,1.976867 c -0.0768,0.286219 -0.118399,0.587016 -0.118399,0.897413 0,0.324974 0.04587,0.638926 0.129777,0.937234 z m 14.770325,-5.290963 c -0.633238,-0.715015 -1.557672,-1.166565 -2.58806,-1.166565 -0.601949,0 -1.167632,0.153954 -1.660426,0.424528 L 13.82278,16.032533 16.898657,12.47275 c 0.491728,0.269153 1.056343,0.42204 1.656515,0.42204 1.024344,0 1.944156,-0.445862 2.577393,-1.153765 l 4.280842,2.830191 c -0.209776,0.446217 -0.327819,0.94399 -0.327819,1.469495 0,0.519461 0.115554,1.0119 0.320707,1.454206 z"
      id="path1" style="stroke-width:0.355552" />
  </symbol>
  <symbol id="magnifier">
    <path id="path6" style="stroke-width:0.336842"
      d="m 15.36,9.6000003 c -3.166316,0 -5.7600001,2.5936837 -5.7600001,5.7599997 0,3.166316 2.5936861,5.76 5.7600001,5.76 3.166316,0 5.76,-2.593684 5.76,-5.76 0.03368,-3.166316 -2.56,-5.7599997 -5.76,-5.7599997 z m 5.187369,13.3389477 c -1.482107,1.010527 -3.233682,1.616842 -5.153686,1.616842 -5.052634,0 -9.1621053,-4.109474 -9.1621053,-9.162106 0,-5.052631 4.1094723,-9.1621052 9.1621053,-9.1621052 5.052634,0 9.162105,4.1094742 9.162105,9.1621052 0,1.920001 -0.606315,3.705264 -1.616843,5.153685 l 5.524212,5.490527 C 30.686316,23.27579 32,19.806316 32,16 32,7.174737 24.825263,0 16,0 7.1747369,0 0,7.174737 0,16 c 0,8.825264 7.1747369,16 16,16 3.806317,0 7.309474,-1.347375 10.037895,-3.536843 z m 11.44656,9.034317 h -0.0261 c -0.0036,0 -0.0061,0.0053 -0.0061,0.01324 0,0.0079 0.0024,0.01324 0.0061,0.01324 h 0.0261 c 0.0036,0 0.0061,-0.0053 0.0061,-0.01324 0,-0.0066 -0.0024,-0.01324 -0.0061,-0.01324 z m 0,-0.0437 h -0.0261 c -0.0036,0 -0.0061,0.0053 -0.0061,0.01324 0,0.0079 0.0024,0.01324 0.0061,0.01324 h 0.0261 c 0.0036,0 0.0061,-0.0053 0.0061,-0.01324 0,-0.0079 -0.0024,-0.01324 -0.0061,-0.01324 z m -0.0261,-0.04502 c -0.0036,0 -0.0061,0.0053 -0.0061,0.01324 0,0.0079 0.0024,0.01324 0.0061,0.01324 h 0.0261 c 0.0036,0 0.0061,-0.0053 0.0061,-0.01324 0,-0.0079 -0.0024,-0.01324 -0.0061,-0.01324 z m 0.02853,-0.13507 v -0.02649 c 0,-0.03708 -0.03035,-0.05297 -0.05889,-0.05297 -0.02853,0 -0.05889,0.01721 -0.05889,0.05297 v 0.02649 c 0,0.02384 0.0042,0.04767 0.01214,0.06489 l 0.03035,0.06489 c 0.0018,0.004 0.0024,0.0079 0.0024,0.01324 v 0.08475 c 0,0.0053 0.0012,0.0093 0.0036,0.01059 l 0.01761,0.01192 c 0.003,0.0013 0.0061,-0.0026 0.0061,-0.01059 v -0.09534 c 0,-0.0053 0.0012,-0.0093 0.0024,-0.01324 l 0.03096,-0.06621 c 0.0079,-0.01721 0.01214,-0.04105 0.01214,-0.06489 z m -0.05889,-0.0013 c -0.02914,0 -0.04492,-0.01721 -0.04553,-0.02383 v 0 c 6.07e-4,-0.0066 0.01639,-0.02384 0.04553,-0.02384 0.02914,0 0.04432,0.01721 0.04553,0.02384 -0.0012,0.0066 -0.01639,0.02383 -0.04553,0.02383 z" />
  </symbol>
  <symbol id="pixel-phone">
    <path
     d="m 23.644444,9.2444444 c 0.04907,0 0.08889,-0.039822 0.08889,-0.088889 v -1.6 c 0,-0.049067 -0.03982,-0.088889 -0.08889,-0.088889 h -0.08889 V 1.9555556 C 23.555554,0.88 22.675555,0 21.599999,0 H 10.222221 C 9.1466655,0 8.2666655,0.88 8.2666655,1.9555556 V 30.044444 C 8.2666655,31.12 9.1466655,32 10.222221,32 h 11.377778 c 1.075556,0 1.955555,-0.88 1.955555,-1.955556 v -14.4 h 0.08889 c 0.04907,0 0.08889,-0.03982 0.08889,-0.08889 V 11.82222 c 0,-0.04907 -0.03982,-0.08889 -0.08889,-0.08889 h -0.08889 V 9.2444444 Z M 17.51111,1.0666667 c 0.195555,0 0.355556,0.16 0.355556,0.3555555 0,0.1955556 -0.160001,0.3555556 -0.355556,0.3555556 -0.195556,0 -0.355556,-0.16 -0.355556,-0.3555556 0,-0.1955555 0.16,-0.3555555 0.355556,-0.3555555 z m -2.311111,0.3555555 h 1.422222 c 0.09778,0 0.177778,0.08 0.177778,0.1777778 0,0.097778 -0.08,0.1777778 -0.177778,0.1777778 h -1.422222 c -0.09778,0 -0.177778,-0.08 -0.177778,-0.1777778 0,-0.097778 0.08,-0.1777778 0.177778,-0.1777778 z M 14.31111,1.0666667 c 0.195556,0 0.355556,0.16 0.355556,0.3555555 0,0.1955556 -0.16,0.3555556 -0.355556,0.3555556 -0.195556,0 -0.355556,-0.16 -0.355556,-0.3555556 0,-0.1955555 0.16,-0.3555555 0.355556,-0.3555555 z m 3.555556,30.2222223 h -3.911112 c -0.09778,0 -0.177777,-0.08 -0.177777,-0.177778 0,-0.09778 0.08,-0.177778 0.177777,-0.177778 h 3.911112 c 0.09778,0 0.177777,0.08 0.177777,0.177778 0,0.09778 -0.08,0.177778 -0.177777,0.177778 z m 4.977777,-2.133333 c 0,0.391111 -0.32,0.711111 -0.71111,0.711111 H 9.6888877 c -0.3911111,0 -0.7111111,-0.32 -0.7111111,-0.711111 V 1.7777778 c 0,-0.5866667 0.48,-1.06666669 1.0666664,-1.06666669 h 2.844445 c 0.293333,0 0.533333,0.24 0.533333,0.53333329 V 1.6 c 0,0.3911111 0.32,0.7111111 0.711111,0.7111111 h 3.555556 c 0.391111,0 0.711111,-0.32 0.711111,-0.7111111 V 1.2444444 c 0,-0.29333329 0.24,-0.53333329 0.533334,-0.53333329 h 2.844444 c 0.586666,0 1.066667,0.47999999 1.066667,1.06666669 z"
     id="path1"
     style="fill:#8f3ea8;stroke-width:0.355556" />
  </symbol>
  <symbol id="invitation"> 
    <path
     d="M 6.2384011,10.41985 C 6.3038627,10.331925 6.3974966,10.180305 6.4903797,9.9786021 6.6457609,9.6411806 6.739415,9.2826329 6.739415,8.9160989 6.739415,8.549565 6.6457609,8.1910173 6.4903797,7.8535958 6.3974966,7.6518934 6.3038627,7.5002727 6.2384011,7.4123481 L 6.0759492,7.1941521 5.9134978,7.4123481 C 5.8480361,7.5002727 5.7544022,7.6518934 5.6615188,7.8535958 5.5061375,8.1910173 5.4124835,8.549565 5.4124835,8.9160989 c 0,0.366534 0.093654,0.7250817 0.2490353,1.0625032 0.092883,0.2017029 0.1865173,0.3533229 0.251979,0.4412479 l 0.1624514,0.218196 z M 6.0294456,9.8091733 C 5.8967431,9.521 5.8175468,9.217803 5.8175468,8.9160989 c 0,-0.301704 0.079196,-0.604901 0.2118988,-0.8930743 0.079967,-0.1736547 0.048001,-0.09337 0.048001,-0.09337 0.014848,0.029434 0.029913,0.060594 0.045006,0.09337 0.1327028,0.2881733 0.2118988,0.5913703 0.2118988,0.8930743 0,0.3017041 -0.079196,0.6049011 -0.2118988,0.8930744 -0.016029,0.034807 -0.032027,0.06779 -0.047763,0.098822 0,0 0.034723,0.074833 -0.045244,-0.098822 z M 6.9414622,10.67208 c 0.099077,-0.0469 0.2529331,-0.136815 0.4296374,-0.271302 C 7.6667032,10.1758 7.9177226,9.9031891 8.0898,9.5795589 8.261877,9.2559283 8.3475135,8.8953818 8.36873,8.5245089 8.3814129,8.3028103 8.3699213,8.124979 8.3533988,8.0166137 L 8.3123996,7.7476915 8.0665265,7.8640808 C 7.9674491,7.9109814 7.8135935,8.0008959 7.6368892,8.1353824 7.3412856,8.360361 7.0902662,8.632972 6.9181888,8.9566022 c -0.172077,0.3236303 -0.2577135,0.6841767 -0.27893,1.0550498 -0.012683,0.221698 -0.00119,0.39953 0.015331,0.507895 l 0.040999,0.268922 z m 0.5248072,0.566899 c 0.109571,0.0032 0.2874775,-0.0071 0.5059778,-0.04668 0.365523,-0.06626 0.7129454,-0.195194 1.0131926,-0.40543 C 9.2856867,10.576634 9.5256741,10.294263 9.7129508,9.9734448 9.8249001,9.7816678 9.8953941,9.6180011 9.9298704,9.5139465 L 10.015428,9.255722 9.7435137,9.2478012 c -0.109571,-0.0032 -0.2874775,0.00707 -0.5059781,0.04668 C 8.8720129,9.3607376 8.5245901,9.4896754 8.2243433,9.6999103 7.9240961,9.9101457 7.684109,10.192517 7.4968323,10.513335 7.384883,10.705112 7.314389,10.868779 7.2799124,10.972833 l -0.085557,0.258225 z m 0.1874248,0.724119 c 0.095247,0.05426 0.2571485,0.128717 0.4686671,0.196326 0.3538428,0.113102 0.7211314,0.162362 1.0849334,0.117693 0.3638016,-0.04467 0.7082633,-0.181321 1.0242333,-0.376666 0.18888,-0.116772 0.327959,-0.228186 0.40725,-0.303875 l 0.196772,-0.187832 -0.236367,-0.134649 c -0.09525,-0.05426 -0.257149,-0.128717 -0.468667,-0.196326 -0.3538433,-0.113102 -0.7211318,-0.162362 -1.0849338,-0.117693 -0.3638016,0.04467 -0.7082634,0.181321 -1.0242335,0.376666 -0.1888793,0.116772 -0.3279586,0.228186 -0.4072503,0.303875 l -0.1967719,0.187832 z m -0.1666287,0.728324 c 0.058625,0.09262 0.1666195,0.234374 0.3216389,0.393371 0.2593267,0.265982 0.560497,0.481908 0.9026859,0.613262 0.342189,0.131354 0.7104844,0.172412 1.0811783,0.148272 0.2215924,-0.01443 0.3966974,-0.04751 0.5022414,-0.07711 l 0.261921,-0.07347 -0.145486,-0.229856 C 10.35262,13.373267 10.244625,13.231517 10.089606,13.072519 9.8302793,12.806537 9.529109,12.590611 9.18692,12.459258 8.8447311,12.327903 8.4764356,12.286845 8.1057414,12.310985 c -0.2215917,0.01443 -0.3966972,0.04751 -0.5022413,0.07711 l -0.2619211,0.07347 z m -0.5003413,0.588862 c 0.010184,0.109143 0.042056,0.284472 0.1079956,0.496518 0.1103083,0.354723 0.2806248,0.683842 0.5258841,0.95623 0.2452591,0.272388 0.5547727,0.476174 0.8960225,0.622957 0.2039909,0.08774 0.3750287,0.137766 0.4825093,0.159304 l 0.2667267,0.05345 -0.025277,-0.270853 C 9.2304007,15.188747 9.1985293,15.013418 9.1325894,14.801373 9.0222812,14.446649 8.8519643,14.11753 8.6067053,13.845142 8.3614463,13.572754 8.0519327,13.368968 7.7106829,13.222185 7.506692,13.134442 7.3356542,13.084419 7.2281735,13.062881 l -0.2667267,-0.05345 z m -0.6967994,0.272528 c -0.042246,0.101149 -0.096419,0.270918 -0.1377467,0.4891 -0.069136,0.364989 -0.073268,0.735542 0.015406,1.091189 0.088672,0.355646 0.2662852,0.680887 0.4986805,0.970696 0.1389204,0.173239 0.2664534,0.297705 0.3512416,0.36718 l 0.2104124,0.172414 0.1048399,-0.251015 c 0.042246,-0.101149 0.096419,-0.270918 0.1377464,-0.4891 0.069136,-0.364988 0.073268,-0.735542 -0.015406,-1.091189 C 7.3664264,14.456441 7.1888136,14.131201 6.9564183,13.841392 6.8174979,13.668151 6.6899649,13.543687 6.6051767,13.47421 L 6.3947643,13.301796 Z m -0.743203,-0.0786 c -0.084788,0.06948 -0.2123212,0.193941 -0.3512413,0.367182 -0.2323957,0.289809 -0.4100081,0.615049 -0.4986809,0.970695 -0.088672,0.355647 -0.084541,0.726201 -0.015406,1.09119 0.041328,0.218182 0.0955,0.38795 0.1377467,0.489099 l 0.1048396,0.251015 0.2104127,-0.172413 c 0.084788,-0.06948 0.2123212,-0.193942 0.3512412,-0.367181 0.2323957,-0.289809 0.4100082,-0.61505 0.4986809,-0.970696 0.088673,-0.355646 0.084541,-0.7262 0.015406,-1.091189 -0.041328,-0.218182 -0.0955,-0.387951 -0.1377468,-0.4891 L 5.7571345,13.301796 Z M 4.9237246,13.062881 c -0.1074806,0.02154 -0.2785184,0.07156 -0.4825093,0.159304 -0.3412499,0.146783 -0.6507635,0.350569 -0.8960225,0.622957 -0.2452593,0.272388 -0.4155758,0.601507 -0.5258845,0.956231 -0.06594,0.212045 -0.09781,0.387374 -0.1079953,0.496517 l -0.025277,0.270853 0.2667267,-0.05345 c 0.1074804,-0.02154 0.2785182,-0.07156 0.4825087,-0.159304 0.3412502,-0.146783 0.6507638,-0.350569 0.8960228,-0.622957 0.245259,-0.272388 0.4155759,-0.601507 0.5258841,-0.95623 0.06594,-0.212046 0.09781,-0.387375 0.1079957,-0.496518 l 0.025277,-0.270853 z M 4.5483984,12.388099 c -0.1055442,-0.0296 -0.2806493,-0.06268 -0.502241,-0.07711 -0.3706942,-0.02414 -0.7389896,0.01692 -1.0811786,0.148273 -0.3421889,0.131353 -0.6433593,0.347279 -0.902686,0.613261 -0.1550191,0.158998 -0.2630136,0.300748 -0.321639,0.393372 l -0.1454862,0.229856 0.2619211,0.07347 c 0.1055442,0.0296 0.2806496,0.06268 0.5022413,0.07711 0.3706941,0.02414 0.7389895,-0.01692 1.0811785,-0.148272 0.3421889,-0.131354 0.6433593,-0.34728 0.9026859,-0.613262 0.1550191,-0.158997 0.2630137,-0.300748 0.3216389,-0.393371 l 0.1454862,-0.229857 z m -0.0106,-0.747482 C 4.458507,11.564928 4.3194277,11.453514 4.1305484,11.336742 3.8145779,11.141397 3.4701166,11.004746 3.1063146,10.960076 c -0.3638016,-0.04467 -0.7310903,0.0046 -1.0849331,0.117693 -0.2115186,0.06761 -0.3734201,0.142067 -0.4686672,0.196326 l -0.2363676,0.134649 0.1967719,0.187832 c 0.079291,0.07569 0.2183708,0.187103 0.4072501,0.303875 0.3159704,0.195345 0.6604318,0.331997 1.0242337,0.376666 0.363802,0.04467 0.7310906,-0.0046 1.0849334,-0.117693 0.2115186,-0.06761 0.37342,-0.142067 0.4686671,-0.196326 l 0.2363674,-0.134649 z m 0.334186,-0.667783 C 4.8375081,10.868779 4.7670141,10.705113 4.6550649,10.513335 4.4677881,10.192517 4.227801,9.910146 3.9275538,9.6999107 3.627307,9.4896757 3.2798842,9.3607379 2.9143616,9.2944818 2.6958609,9.2548755 2.5179544,9.24461 2.4083834,9.2478015 l -0.2719143,0.00792 0.085558,0.2582244 c 0.034476,0.1040546 0.1049703,0.2677213 0.2169197,0.4594984 0.1872767,0.3208177 0.4272638,0.6031897 0.727511,0.8134247 0.3002468,0.210235 0.6476696,0.339173 1.0131923,0.405429 0.2185006,0.03961 0.3964071,0.04987 0.5059781,0.04668 l 0.2719142,-0.0079 z M 5.4973071,10.519547 C 5.5138296,10.411182 5.5253212,10.23335 5.5126383,10.011652 5.4914218,9.6407789 5.4057857,9.2802325 5.2337083,8.9566022 5.0616313,8.632972 4.8106115,8.360361 4.5150083,8.1353824 4.338304,8.0008959 4.1844484,7.9109814 4.0853709,7.8640808 L 3.8394978,7.7476915 3.7984986,8.0166137 c -0.016522,0.1083653 -0.028014,0.2861966 -0.015331,0.5078952 0.021217,0.3708729 0.1068526,0.7314194 0.27893,1.05505 0.1720773,0.3236302 0.4230967,0.5962411 0.7187,0.8212191 0.1767046,0.134487 0.3305602,0.224401 0.4296374,0.271302 l 0.2458734,0.116389 0.040999,-0.268922 v 0 0 0 z M 7.0436665,10.03479 C 7.0617854,9.718048 7.1342023,9.4131606 7.275844,9.1467716 7.4174855,8.8803826 7.6297539,8.649856 7.8822125,8.457714 8.0343451,8.3419285 7.9684295,8.397809 7.9684295,8.397809 7.9677147,8.430769 7.9663895,8.465353 7.9643395,8.5013785 7.9462205,8.8181207 7.8738035,9.1230084 7.732162,9.3893971 7.5905202,9.6557861 7.3782518,9.8863127 7.1257932,10.078455 c -0.030492,0.02321 -0.060104,0.04482 -0.088567,0.06483 0,0 -0.00447,0.08238 0.00645,-0.108495 v 0 0 0 z m 0.8029805,0.682745 c 0.1599428,-0.273993 0.3628822,-0.512773 0.6100236,-0.685824 0.2471413,-0.1730502 0.540931,-0.282083 0.8531041,-0.338669 0.1881168,-0.034099 0.1040161,-0.014235 0.1040161,-0.014235 -0.015597,0.029045 -0.032476,0.059258 -0.05067,0.090421 -0.1599425,0.2739928 -0.3628819,0.5127738 -0.6100236,0.6858238 -0.2471414,0.173051 -0.5409311,0.282084 -0.8531038,0.33867 -0.037706,0.0068 -0.073901,0.01265 -0.1083463,0.01756 0,0 -0.041383,0.07137 0.055,-0.09374 v 0 z m 0.3877044,0.963741 c 0.2698528,-0.166833 0.5611386,-0.282389 0.8605937,-0.319158 0.2994555,-0.03677 0.610044,0.0049 0.9122419,0.101481 0.182106,0.05821 0.09852,0.03626 0.09852,0.03626 -0.0274,0.01832 -0.0565,0.03707 -0.08719,0.05605 -0.2698484,0.166834 -0.5611339,0.28239 -0.8605893,0.319159 -0.2994551,0.03677 -0.6100437,-0.0049 -0.9122413,-0.101481 -0.036501,-0.01167 -0.071188,-0.02353 -0.1039063,-0.03536 0,0 -0.070043,0.04359 0.092571,-0.05695 z M 8.13206,12.715198 c 0.3165893,-0.02062 0.6280295,0.0141 0.9096945,0.122224 0.281665,0.108121 0.5363426,0.290714 0.757819,0.517874 0.1334629,0.136888 0.069966,0.07827 0.069966,0.07827 -0.0328,0.0033 -0.067289,0.0062 -0.1032969,0.0086 -0.316589,0.02061 -0.6280296,-0.01411 -0.9096946,-0.122228 -0.281665,-0.108121 -0.5363422,-0.290713 -0.7578189,-0.517874 -0.026751,-0.02744 -0.051811,-0.05419 -0.075141,-0.08 0,0 -0.082306,0.0056 0.1084722,-0.0068 z m -0.5814224,0.87908 c 0.2914427,0.12536 0.5531755,0.297686 0.755055,0.521896 0.2018794,0.22421 0.3459036,0.502522 0.4401118,0.805472 0.05677,0.182559 0.026806,0.101506 0.026806,0.101506 -0.03073,-0.01194 -0.062775,-0.02501 -0.095923,-0.03927 C 8.3852446,14.858521 8.1235118,14.686194 7.9216323,14.461984 7.7197529,14.237774 7.5757287,13.959462 7.4815205,13.656512 c -0.011379,-0.03659 -0.02156,-0.07181 -0.030628,-0.105398 0,0 -0.075877,-0.03238 0.099747,0.04317 v 0 0 0 z M 6.640411,14.094797 c 0.1984763,0.247509 0.34867,0.522541 0.421659,0.815283 0.072989,0.292742 0.069495,0.606092 0.01045,0.917809 -0.035581,0.187842 -0.023987,0.10221 -0.023987,0.10221 -0.021526,-0.02497 -0.043684,-0.05156 -0.066257,-0.07971 -0.1984763,-0.24751 -0.34867,-0.522542 -0.421659,-0.815284 -0.072989,-0.292742 -0.069495,-0.606092 -0.01045,-0.917809 0.00713,-0.03765 0.014674,-0.07353 0.022438,-0.107441 0,0 -0.051796,-0.06421 0.067807,0.08494 z m -1.0386823,0.0225 c 0.059045,0.311717 0.062539,0.625067 -0.01045,0.917809 -0.072989,0.292742 -0.2231828,0.567774 -0.421659,0.815284 -0.1196026,0.14915 -0.069163,0.07898 -0.069163,0.07898 -0.00728,-0.03215 -0.014364,-0.06603 -0.02108,-0.101485 -0.059046,-0.311717 -0.062539,-0.625067 0.01045,-0.917809 0.072989,-0.292742 0.2231827,-0.567773 0.4216589,-0.815283 0.023974,-0.0299 0.047475,-0.05803 0.070252,-0.08433 0,0 -0.01559,-0.08101 0.019991,0.106832 v 0 z M 4.6703773,13.656512 c -0.094208,0.30295 -0.2382324,0.581262 -0.4401118,0.805472 -0.2018795,0.22421 -0.4636123,0.396537 -0.755055,0.521896 -0.1756249,0.07554 -0.098149,0.03727 -0.098149,0.03727 0.00866,-0.03181 0.018316,-0.06505 0.029032,-0.0995 0.094209,-0.30295 0.2382329,-0.581262 0.4401124,-0.805472 0.2018795,-0.22421 0.4636119,-0.396536 0.755055,-0.521896 0.035202,-0.01514 0.069161,-0.02895 0.1016198,-0.04148 0,0 0.02427,-0.07885 -0.032503,0.103713 z M 4.053168,12.802027 c -0.2214766,0.227161 -0.4761542,0.409753 -0.7578192,0.517874 -0.281665,0.108121 -0.5931053,0.142841 -0.9096946,0.122225 -0.1907781,-0.01242 -0.1043701,-0.01135 -0.1043701,-0.01135 0.022159,-0.02441 0.045849,-0.04964 0.071039,-0.07548 0.2214765,-0.22716 0.4761541,-0.409752 0.7578191,-0.517873 0.281665,-0.108122 0.5931052,-0.142842 0.9096945,-0.122225 0.038239,0.0025 0.074765,0.0056 0.1093753,0.0092 0,0 0.057419,-0.05923 -0.076044,0.07765 v 0 0 0 z M 3.9062107,11.77359 c -0.3021976,0.09659 -0.6127862,0.138249 -0.9122416,0.101481 -0.2994551,-0.03677 -0.5907406,-0.152325 -0.8605936,-0.319158 -0.1626146,-0.100534 -0.086824,-0.05902 -0.086824,-0.05902 0.031025,-0.01115 0.063788,-0.02231 0.098159,-0.03329 0.3021978,-0.09659 0.6127863,-0.138249 0.9122418,-0.10148 0.2994551,0.03677 0.5907406,0.152324 0.8605934,0.319157 0.032596,0.02015 0.063382,0.04005 0.092264,0.05945 0,0 0.078507,-0.02534 -0.1035992,0.03287 z M 4.2519033,10.793722 C 3.9397306,10.737136 3.6459409,10.628103 3.3987992,10.455053 3.1516578,10.282003 2.9487184,10.043222 2.7887756,9.7692289 2.6923937,9.6041197 2.7398239,9.676354 2.7398239,9.676354 c 0.032626,0.00472 0.066793,0.010253 0.1022985,0.016689 0.3121728,0.056586 0.6059625,0.1656188 0.8531042,0.338669 0.2471413,0.173051 0.4500807,0.411831 0.6100236,0.685824 0.019317,0.03309 0.037161,0.06512 0.053554,0.09581 0,0 0.081216,0.01448 -0.1069006,-0.01962 v 0 0 0 z m 0.774207,-0.715268 C 4.7736517,9.8863123 4.5613829,9.6557857 4.4197415,9.3893967 4.2781,9.123008 4.2056839,8.8181203 4.187564,8.5013781 4.176644,8.3105079 4.186104,8.3964024 4.186104,8.3964024 c 0.026928,0.019021 0.054859,0.039458 0.083573,0.061312 0.2524586,0.192142 0.4647271,0.4226686 0.6063685,0.6890576 0.1416414,0.266389 0.2140579,0.5712764 0.2321775,0.888019 0.00218,0.03826 0.00355,0.07489 0.00422,0.109677 0,0 0.065791,0.04977 -0.086341,-0.06601 v 0 0 0 z m 1.0498389,3.188584 c 0.7058446,0 1.2780448,-0.572201 1.2780448,-1.278045 0,-0.705844 -0.5722002,-1.278045 -1.2780448,-1.278045 -0.7058442,0 -1.2780444,0.572201 -1.2780444,1.278045 0,0.705844 0.5722002,1.278045 1.2780444,1.278045 z m 0,-0.405064 c -0.4821342,0 -0.8729811,-0.390847 -0.8729811,-0.872981 0,-0.482134 0.3908469,-0.872981 0.8729811,-0.872981 0.4821343,0 0.8729815,0.390847 0.8729815,0.872981 0,0.482134 -0.3908472,0.872981 -0.8729815,0.872981 z m 15.9647438,5.300768 1.145503,-1.145502 c 0.315509,-0.315509 0.315854,-0.830028 9.4e-5,-1.145786 -0.315784,-0.315785 -0.829736,-0.315956 -1.145786,9.4e-5 l -0.321078,0.321078 -0.286422,0.286422 -0.286423,-0.286422 -0.321078,-0.321078 c -0.31605,-0.31605 -0.830002,-0.315879 -1.145787,-9.4e-5 -0.315759,0.315758 -0.315414,0.830277 9.5e-5,1.145786 l 1.145503,1.145502 c 0.07636,0.07636 0.203522,0.196044 0.366149,0.345366 0.01078,0.0099 0.01078,0.0099 0.02157,0.01979 0.106959,0.09804 0.213192,0.200361 0.213192,0.200361 l 0.626466,-0.577027 z m 0.286423,0.286423 -0.894113,0.823553 c 0,0 -0.648055,-0.577495 -0.894112,-0.823553 l -1.145503,-1.145502 c -0.473081,-0.473081 -0.474656,-1.244072 -9.5e-5,-1.718633 0.473596,-0.473595 1.24402,-0.474519 1.718633,9.5e-5 l 0.321078,0.321077 0.321077,-0.321077 c 0.474613,-0.474613 1.245037,-0.47369 1.718632,-9.5e-5 0.474562,0.474561 0.472987,1.245552 -9.4e-5,1.718633 z m 2.179213,-1.19435 h 4.050633 c 0,0 0.202532,0 0.202532,-0.202531 0,-0.202532 -0.202532,-0.202532 -0.202532,-0.202532 h -4.050633 c 0,0 -0.204435,0 -0.204435,0.202532 0,0.202531 0.204435,0.202531 0.204435,0.202531 z m -10.531645,0 h 4.050632 c 0,0 0.202532,0 0.202532,-0.202531 0,-0.202532 -0.202532,-0.202532 -0.202532,-0.202532 h -4.050632 c 0,0 -0.204436,0 -0.204436,0.202532 0,0.202531 0.204436,0.202531 0.204436,0.202531 z M 28.556962,9.9636763 c 0,0 0.202532,0 0.202532,-0.2025316 C 28.759493,9.558613 28.556962,9.558613 28.556962,9.558613 H 13.974684 c 0,0 -0.206934,0 -0.20404,0.2025317 0.0029,0.2025316 0.215613,0.2025316 0.215613,0.2025316 z m 0,4.8607597 c 0,0 0.202532,0 0.202532,-0.202532 -1e-6,-0.202531 -0.202532,-0.202531 -0.202532,-0.202531 H 13.974684 c 0,0 -0.206934,0 -0.20404,0.202531 0.0029,0.202532 0.215613,0.202532 0.215613,0.202532 z m 0,-2.43038 c 0,0 0.202532,0 0.202532,-0.202532 -1e-6,-0.202531 -0.202532,-0.202531 -0.202532,-0.202531 H 13.974684 c 0,0 -0.206934,0 -0.20404,0.202531 0.0029,0.202532 0.215613,0.202532 0.215613,0.202532 z m -3.899097,13.287837 h 1.873841 l 0.05365,-0.05812 4.86076,-5.265824 0.137373,-0.14882 0.01145,0.01057 v -1.860267 z m -0.557975,0 H 1.2153626 c -0.44736449,0 -0.81029932,-0.363319 -0.81029932,-0.811474 V 7.1295806 c 0,-0.4491042 0.36157872,-0.8114738 0.81029932,-0.8114738 H 30.784638 c 0.447364,0 0.810299,0.3633186 0.810299,0.8114738 V 17.785955 l -0.0077,-0.0073 -0.13929,0.147028 -7.291139,7.696202 -0.05688,0.06004 v 0 z m 2.983069,0 h 3.701679 c 0.44872,0 0.810299,-0.362369 0.810299,-0.811474 V 20.793917 Z M 1.2153626,5.9130435 H 30.784638 C 31.455864,5.9130435 32,6.4578666 32,7.1295806 V 24.870419 c 0,0.671875 -0.541993,1.216537 -1.215362,1.216537 H 1.2153626 C 0.54413635,26.086956 0,25.542134 0,24.870419 V 7.1295806 C 0,6.4577056 0.54199319,5.9130435 1.2153626,5.9130435 Z"
     id="path1"
     style="fill:#8f3ea8;fill-rule:evenodd;stroke:none;stroke-width:0.340389" />
  </symbol>
  <symbol id="copy">
    <path
     d="m 25.142858,16.457143 a 0.91428571,0.91428571 0 0 1 -0.914287,0.914286 h -9.142966 a 0.914286,0.914286 0 0 1 0,-1.828572 h 9.142966 a 0.91428571,0.91428571 0 0 1 0.914287,0.914286 z M 24.228571,19.2 h -9.142966 a 0.91428571,0.91428571 0 0 0 0,1.828571 h 9.142966 a 0.91428571,0.91428571 0 0 0 0,-1.828571 z m 0,3.657143 h -9.142966 a 0.91428571,0.91428571 0 0 0 0,1.828571 h 9.142966 a 0.91428571,0.91428571 0 0 0 0,-1.828571 z m 6.4,-9.142857 V 28.342857 A 3.6571429,3.6571429 0 0 1 26.971429,32 H 12.342858 A 3.6571429,3.6571429 0 0 1 8.6857142,28.342857 V 26.514286 H 5.0285714 A 3.6571429,3.6571429 0 0 1 1.3714285,22.857143 V 6.4 A 3.6571429,3.6571429 0 0 1 5.0285714,2.7428571 h 4.5713188 a 2.7428571,2.7428571 0 0 1 5.4857148,0 h 4.571537 A 3.6571429,3.6571429 0 0 1 23.314285,6.4 v 3.657143 h 3.657144 a 3.6571429,3.6571429 0 0 1 3.657142,3.657143 z M 12.342858,10.057143 h 9.142856 V 6.4 A 1.8306743,1.8306743 0 0 0 19.657142,4.5714286 H 17.828571 V 6.4 H 6.8571428 V 4.5714286 H 5.0285714 A 1.8306743,1.8306743 0 0 0 3.1999999,6.4 v 16.457143 a 1.8306743,1.8306743 0 0 0 1.8285715,1.828571 H 8.6857142 V 13.714286 A 3.6571429,3.6571429 0 0 1 12.342858,10.057143 Z M 28.8,13.714286 A 1.8306743,1.8306743 0 0 0 26.971429,11.885714 H 12.342858 a 1.8306743,1.8306743 0 0 0 -1.828572,1.828572 v 14.628571 a 1.8306743,1.8306743 0 0 0 1.828572,1.828572 H 26.971429 A 1.8306743,1.8306743 0 0 0 28.8,28.342857 Z"
     id="path1"
     style="stroke-width:1.82857" />
  </symbol>
  <symbol id="whatsapp">
    <path
     d="m 0.846548,30.909175 c -0.070993,0.30128 0.017315,0.619856 0.2441391,0.838029 C 1.258643,31.911694 1.4802733,32 1.7105428,32 c 0.076188,0 0.1506377,-0.0087 0.2216303,-0.02597 l 7.2118505,-1.875214 c 2.0881564,0.971362 4.3166054,1.463115 6.6400444,1.463115 8.700763,0 15.780965,-7.078429 15.780965,-15.780965 C 31.565033,7.0802021 24.481728,0 15.780965,0 7.0802021,0 0,7.0802021 0,15.780965 c 0,3.005839 0.841486,5.913097 2.4431196,8.435693 z M 8.7680587,8.7550092 9.910829,7.6693752 c 0.434604,-0.412095 1.121981,-0.3947768 1.534081,0.039823 l 2.574723,2.7132428 c 0.412095,0.434604 0.394777,1.121981 -0.03982,1.534081 l -1.125485,1.073532 c 0,0 -1.48909,0.895165 1.631066,3.909692 l 0.128129,0.136786 c 2.850033,3.270775 3.821394,1.830178 3.821394,1.830178 L 19.5604,17.833177 c 0.434604,-0.412095 1.121981,-0.394776 1.534081,0.03982 l 2.531417,2.66475 c 0.412095,0.434604 0.394777,1.121981 -0.03982,1.534081 l -1.14277,1.085634 c -0.872691,0.829385 -2.096844,1.210323 -3.275962,0.966175 -1.599905,-0.327251 -3.994532,-1.463115 -7.208304,-4.659556 0.06233,0.07099 0.124667,0.136786 0.187003,0.212974 l -0.38959,-0.408629 c 0.0658,0.07099 0.133324,0.133324 0.199122,0.199121 C 8.9289491,16.09806 7.9177386,13.647982 7.6735906,12.03407 7.5004397,10.834163 7.8952209,9.5840351 8.7679125,8.7546501 Z"
     id="path1"
     style="stroke-width:0.443261" />
  </symbol>
  <symbol id="call">
    <path
     d="m 10.663387,11.776848 c 0.696,-0.695999 0.93971,-1.714733 0.62355,-2.6478095 L 9.0167175,2.3118099 C 8.5951723,1.0405983 7.2404934,0.2941261 5.9429199,0.6190531 4.2676979,1.034011 2.0480076,1.9846909 0.9633989,4.1539061 -0.5142025,7.1112985 -1.2914202,14.940404 6.3534491,23.421893 c 0.882604,0.977029 1.894763,1.910105 3.001292,2.766404 C 11.980632,28.212613 17.623217,32 23.063965,32 c 1.79376,0 3.563352,-0.410568 5.199062,-1.433703 0.990182,-0.619166 1.719119,-1.585179 2.050622,-2.720259 l 0.590613,-2.000148 c 0.393005,-1.343661 -0.338112,-2.742236 -1.664205,-3.181373 l -6.272598,-2.09019 c -0.854051,-0.287617 -1.809161,-0.09661 -2.496337,0.483024 l -1.85525,1.578602 c -0.01098,0.01098 -0.03293,0.02195 -0.06147,0.01756 -1.585181,-0.382026 -6.93583,-2.180175 -9.3352672,-9.385843 -0.00659,-0.02196 0,-0.0505 0.021954,-0.06806 z"
     id="path1"
     style="stroke-width:0.56206" />
  <path
     d="m 24.29336,15.272301 c 0,0.619165 0.504978,1.12412 1.124122,1.12412 0.619143,0 1.124121,-0.504977 1.124121,-1.12412 0,-5.4185982 -4.406444,-9.8186306 -9.818639,-9.8186306 -0.619166,0 -1.124122,0.5049774 -1.124122,1.1241205 0,0.6191431 0.504978,1.1241205 1.124122,1.1241205 4.175943,-0.00659 7.570396,3.3943376 7.570396,7.5703896 z"
     id="path2"
     style="stroke-width:0.56206" />
  <path
     d="M 31.99303,15.272301 C 31.99303,6.8526383 25.140948,0 16.720716,0 16.10155,0 15.596594,0.5049774 15.596594,1.1241205 c 0,0.619143 0.504978,1.1241204 1.124122,1.1241204 7.183698,0 13.024071,5.8403679 13.024071,13.0240601 0,0.619165 0.504978,1.12412 1.124122,1.12412 0.619166,0 1.124121,-0.504977 1.124121,-1.12412 z"
     id="path3"
     style="stroke-width:0.56206" />
  </symbol>
  <symbol id="send-mail">
    <path
     d="m 31.964703,6.1917512 c -0.01435,-0.050225 -0.03588,-0.093275 -0.0574,-0.1291503 -0.01435,-0.021525 -0.01435,-0.04305 -0.0287,-0.064575 -0.01435,-0.01435 -0.0287,-0.0287 -0.04305,-0.04305 -0.0287,-0.035875 -0.06457,-0.07175 -0.107626,-0.1004502 -0.03587,-0.0287 -0.07175,-0.0574 -0.107623,-0.07175 -0.04305,-0.021525 -0.07893,-0.035875 -0.121978,-0.050225 -0.05022,-0.01435 -0.09327,-0.021525 -0.1435,-0.0287 -0.02153,0 -0.03588,-0.01435 -0.0574,-0.01435 H 2.8484819 c -0.021525,0 -0.035875,0.00718 -0.0574,0.01435 -0.050225,0.00718 -0.093276,0.01435 -0.1435004,0.0287 -0.050225,0.00718 -0.086101,0.021525 -0.1291503,0.04305 -0.04305,0.021525 -0.07175,0.04305 -0.1076253,0.07175 -0.04305,0.0287 -0.078925,0.064575 -0.1076253,0.1004502 -0.01435,0.01435 -0.0287,0.021525 -0.04305,0.04305 -0.01435,0.021525 -0.01435,0.04305 -0.028701,0.064575 -0.021525,0.04305 -0.04305,0.0861 -0.0574,0.1291503 -0.01435,0.050225 -0.021525,0.093275 -0.028701,0.1435004 0,0.021525 -0.01435,0.04305 -0.01435,0.07175 V 16.179375 C 1.9731298,16.308526 1.8152793,16.444851 1.664604,16.595527 0.58835142,17.671779 0,19.099607 0,20.620711 c 0,1.521104 0.59552644,2.948933 1.664604,4.025185 1.1121277,1.112127 2.5686563,1.664604 4.0251847,1.664604 1.4565285,0 2.9130571,-0.552477 4.0251848,-1.664604 0.5453015,-0.545302 0.9686275,-1.191054 1.2484535,-1.88703 h 20.319648 c 0.100451,0 0.193726,-0.02152 0.279826,-0.0574 0.01435,-0.0072 0.0287,-0.02152 0.04305,-0.0287 0.07175,-0.03587 0.136326,-0.07892 0.193726,-0.136325 0.0072,-0.0072 0.01435,-0.0072 0.01435,-0.01435 0.02153,-0.0287 0.03587,-0.06457 0.0574,-0.09327 0.0287,-0.04305 0.0574,-0.0861 0.07892,-0.12915 0.02152,-0.05022 0.02152,-0.10045 0.0287,-0.15785 0.0072,-0.03588 0.02153,-0.06458 0.02153,-0.100452 V 6.3998267 c 0,-0.0287 -0.01435,-0.050225 -0.01435,-0.07175 0,-0.04305 -0.0072,-0.093275 -0.02152,-0.1363253 z M 29.008595,7.1173285 17.069366,15.483399 5.1229624,7.1173285 Z M 3.5659836,7.7774301 11.480028,13.316543 8.7176461,15.799099 C 7.1606673,14.823297 5.2377627,14.665447 3.5659836,15.339898 Z M 8.703296,23.634219 c -1.4852286,1.485228 -3.8027592,1.628728 -5.4673632,0.4592 l 2.8269569,-2.826956 v 1.284328 c 0,0.394625 0.3228757,0.717501 0.7175017,0.717501 0.3946259,0 0.7175017,-0.322876 0.7175017,-0.717501 v -3.013507 c 0,-0.0072 -0.00717,-0.01435 -0.00717,-0.0287 0,-0.0861 -0.01435,-0.165025 -0.050225,-0.251125 0,0 0,0 0,0 0,-0.0072 -0.00717,-0.0072 -0.00717,-0.01435 -0.035876,-0.07175 -0.078925,-0.136326 -0.1291503,-0.193726 -0.01435,-0.02152 -0.035875,-0.03587 -0.0574,-0.05022 -0.04305,-0.04305 -0.093276,-0.07175 -0.1506754,-0.10045 -0.021525,-0.01435 -0.04305,-0.02153 -0.064575,-0.03587 -0.078925,-0.0287 -0.1650253,-0.05022 -0.2511255,-0.05022 H 3.7668941 c -0.394626,0 -0.7175017,0.322876 -0.7175017,0.717502 0,0.394626 0.3228757,0.717502 0.7175017,0.717502 H 5.0512222 L 2.2170904,23.081755 C 1.7076541,22.36424 1.4350035,21.517589 1.4350035,20.620711 c 0,-1.140827 0.444851,-2.209906 1.248453,-3.013507 0.832302,-0.832302 1.9229046,-1.248454 3.0135073,-1.248454 1.0906025,0 2.1812052,0.416152 3.0135072,1.248454 0.8036019,0.803601 1.2484531,1.87268 1.2484531,3.013507 -0.00717,1.140828 -0.4520261,2.209905 -1.2556281,3.013508 z m 2.633232,-2.303181 c 0.0287,-0.229601 0.05022,-0.466376 0.05022,-0.703152 0,-1.463704 -0.552476,-2.834132 -1.5498032,-3.896035 l 2.8484862,-2.56148 3.97496,2.783906 c 0.121975,0.0861 0.265475,0.129151 0.408975,0.129151 0.143501,0 0.287001,-0.04305 0.408976,-0.129151 l 3.97496,-2.783906 7.964269,7.167841 H 11.336528 Z M 30.572749,20.434161 22.66588,13.316543 30.572749,7.7774301 Z"
     id="path1"
     style="stroke-width:0.717502" />
  </symbol>
</svg>