<svg xmlns="http://www.w3.org/2000/svg">
  <symbol id="ying-yang">
    <path
      d="M 17.240726,0.04062422 C 16.840724,0 16.440722,0 16.00008,0 7.2000358,0 0,7.2000396 0,16.000088 0,24.400134 6.5204326,31.320571 14.759273,31.959375 15.159275,32 15.599918,32 15.99992,32 24.799963,32 32,24.79996 32,15.999912 32,7.5998656 25.479566,0.67942773 17.240726,0.04062422 Z M 13.520387,23.679954 c 0,-1.359368 1.120326,-2.479694 2.479693,-2.479694 1.359366,0 2.479692,1.120326 2.479692,2.479694 0,1.359367 -1.120326,2.479693 -2.479692,2.479693 -1.359367,0 -2.479693,-1.118766 -2.479693,-2.479693 z M 1.6407282,16.000312 C 1.6407282,8.0798682 8.0815602,1.641033 16,1.641033 c 0.359378,0 0.720323,0 1.120325,0.040624 4.440822,0.4000022 7.920439,3.2796979 7.920439,6.7204368 0,3.7593812 -4.040819,6.8000372 -9.000044,6.8000372 -5.879629,0 -10.6408532,3.759381 -10.6408532,8.400046 0,0.920325 0.2000014,1.80001 0.5593629,2.640655 C 3.240456,23.641258 1.6404082,20.000798 1.6404082,16.000776 Z"
      id="path1" style="stroke-width:0.400003" />
    <path
      d="m 15.99992,10.840683 c 1.359366,0 2.479692,-1.1203257 2.479692,-2.4796931 0,-1.3593675 -1.120326,-2.4796938 -2.479692,-2.4796938 -1.359367,0 -2.479693,1.1203263 -2.479693,2.4796938 0,1.3593674 1.120326,2.4796931 2.479693,2.4796931 z"
      id="path2" style="stroke-width:0.400003" />
  </symbol>
  <symbol id="stoic-symbol">
    <path
      d="M 13.233704,29.92473 C 11.663835,29.387546 10.561392,28.697784 9.4694543,27.569552 l -0.945536,-0.976963 -0.506527,0.269322 c -0.245825,0.130704 -5.232099,1.69845 -7.46162002,-2.832356 -0.495939,-1.007842 -0.560779,-1.300925 -0.55548900024,-2.510768 0.0083,-1.889085 0.47525800024,-2.84936 2.37131102024,-4.876081 1.722911,-1.841646 3.108592,-3.872401 3.785459,-5.547699 0.394801,-0.97717 0.48453,-1.4613191 0.490721,-2.6478841 0.0067,-1.277247 -0.0492,-1.552884 -0.464023,-2.289489 -0.259382,-0.460584 -0.443281,-0.865747 -0.408672,-0.900359 0.139143,-0.13914 1.486041,1.505731 1.896942,2.316606 1.052307,2.076626 0.950736,3.6063711 -0.419539,6.3186051 -0.456858,0.904272 -0.953808,2.020918 -1.104335,2.481442 -0.625246,1.912854 -0.155941,3.860543 0.930213,3.860543 0.07561,0 0.189144,-0.344629 0.25231,-0.765842 0.182304,-1.21571 1.195983,-3.041327 2.303847,-4.149192 1.5469377,-1.546938 3.8989367,-2.624514 5.6374627,-2.582817 l 0.780441,0.0187 -0.683326,0.1379 c -2.217449,0.447493 -3.502037,1.936762 -3.502037,4.06004 0,3.078101 3.200648,5.048793 5.924698,3.647936 1.447855,-0.744568 2.179774,-1.984382 2.183058,-3.697947 0.003,-1.537844 -0.478437,-2.585445 -2.040984,-4.441611 -2.558427,-3.0391781 -3.336432,-4.5489891 -3.330949,-6.4640941 0.0034,-1.188216 0.413167,-2.850808 0.944725,-3.833177 0.240093,-0.443715 0.378211,-0.614568 0.306928,-0.379674 -0.07128,0.234893 -0.132795,1.118945 -0.136693,1.964557 -0.01059,2.300315 0.317718,2.882325 3.442078,6.101817 1.393391,1.4358161 2.90928,3.1762971 3.368646,3.8677441 1.070002,1.610587 1.787608,3.467631 2.031705,5.257716 0.189807,1.391947 0.200738,1.414992 0.625936,1.319985 0.939059,-0.20982 1.943599,-0.989266 2.387962,-1.85287 0.829023,-1.611175 0.455656,-4.791085 -0.941453,-8.018226 C 26.31058,9.6813219 26.087413,9.0321189 26.13679,8.9827409 c 0.164892,-0.164895 2.474078,2.2672031 3.340485,3.5182981 1.483134,2.14164 2.300838,4.461338 2.488681,7.059983 0.250586,3.466696 -0.883558,5.89542 -3.357448,7.18986 -0.63831,0.333989 -3.214974,0.931986 -5.313058,-0.213391 l -0.802803,0.893787 c -1.020979,1.136689 -2.523279,2.109772 -3.926141,2.543073 -1.553495,0.479825 -3.847893,0.458469 -5.332802,-0.04964 z"
      style="fill:#000000;stroke-width:0.377043" id="path1-5" />
  </symbol>
  <symbol id="neural-network">
    <!-- Alternative https://thenounproject.com/icon/data-2994678/ -->
    <path
      d="m 28.542616,12.584038 c -1.024344,0 -1.944156,0.445862 -2.577393,1.153765 L 21.684381,10.907612 C 21.894157,10.461395 22.0122,9.9636228 22.0122,9.4381175 c 0,-1.9093121 -1.547716,-3.4570283 -3.457028,-3.4570283 -1.220253,0 -2.291886,0.6328819 -2.907346,1.5875379 L 6.7889023,5.490428 C 6.8699681,5.1967424 6.9140565,4.8881236 6.9140565,4.5688383 6.9140565,2.6595261 5.3663404,1.11181 3.4570283,1.11181 1.5477161,1.11181 0,2.6591706 0,4.5684827 0,6.4777948 1.5477161,8.025511 3.4570283,8.025511 c 0.6005266,0 1.1651426,-0.1532428 1.657226,-0.4227509 L 9.6518039,12.785991 6.3906845,14.212464 C 5.7798469,13.234698 4.6947034,12.584038 3.4570283,12.584038 1.5477161,12.584038 0,14.131754 0,16.041066 c 0,1.909312 1.5477161,3.457029 3.4570283,3.457029 1.2433639,0 2.332774,-0.656704 2.9418339,-1.641582 l 3.2934746,1.427184 -4.4710615,5.174698 C 4.7046588,24.151198 4.1016433,23.974134 3.4570283,23.974134 1.5477161,23.974134 0,25.52185 0,27.431162 c 0,1.909312 1.5477161,3.457028 3.4570283,3.457028 1.9093121,0 3.4570282,-1.547716 3.4570282,-3.457028 0,-0.321063 -0.044799,-0.63146 -0.1265764,-0.926212 l 8.8585679,-2.063621 c 0.614749,0.956433 1.687804,1.590382 2.909124,1.590382 1.909312,0 3.457028,-1.547716 3.457028,-3.457028 0,-0.519461 -0.115199,-1.0119 -0.320708,-1.454206 l 4.263064,-2.788592 C 26.587793,19.0469 27.512583,19.49845 28.542972,19.49845 30.452284,19.49845 32,17.950734 32,16.041422 31.999644,14.131754 30.451928,12.584038 28.542616,12.584038 Z m -12.444306,-0.714303 -2.940767,3.40334 -1.853846,-2.118021 4.317818,-1.888335 c 0.136532,0.218665 0.29653,0.420973 0.476795,0.603016 z M 5.9146009,6.9990335 C 6.0881101,6.8237465 6.2424195,6.6296154 6.3753958,6.420551 l 8.8532352,2.0771325 c -0.08462,0.2990189 -0.130488,0.6143932 -0.130488,0.9407895 0,0.3160854 0.04338,0.621504 0.122666,0.912346 l -4.607949,2.015266 z m 0.8810569,9.9394455 c 0.076799,-0.286219 0.1183987,-0.587016 0.1183987,-0.897413 0,-0.316085 -0.043377,-0.621504 -0.1226653,-0.912345 l 3.5512498,-1.553049 2.154998,2.461483 -2.119799,2.453662 z m 8.8173242,3.820757 -4.274086,-1.852068 1.823624,-2.110554 2.932235,3.349651 c -0.182398,0.185243 -0.344174,0.390751 -0.481773,0.612971 z M 6.372907,25.574827 C 6.2623304,25.401673 6.1371763,25.238831 5.9985111,25.088432 l 4.6555929,-5.388029 4.562438,1.976867 c -0.0768,0.286219 -0.118399,0.587016 -0.118399,0.897413 0,0.324974 0.04587,0.638926 0.129777,0.937234 z m 14.770325,-5.290963 c -0.633238,-0.715015 -1.557672,-1.166565 -2.58806,-1.166565 -0.601949,0 -1.167632,0.153954 -1.660426,0.424528 L 13.82278,16.032533 16.898657,12.47275 c 0.491728,0.269153 1.056343,0.42204 1.656515,0.42204 1.024344,0 1.944156,-0.445862 2.577393,-1.153765 l 4.280842,2.830191 c -0.209776,0.446217 -0.327819,0.94399 -0.327819,1.469495 0,0.519461 0.115554,1.0119 0.320707,1.454206 z"
      id="path1" style="stroke-width:0.355552" />
  </symbol>
  <symbol id="magnifier">
    <path id="path6" style="stroke-width:0.336842"
      d="m 15.36,9.6000003 c -3.166316,0 -5.7600001,2.5936837 -5.7600001,5.7599997 0,3.166316 2.5936861,5.76 5.7600001,5.76 3.166316,0 5.76,-2.593684 5.76,-5.76 0.03368,-3.166316 -2.56,-5.7599997 -5.76,-5.7599997 z m 5.187369,13.3389477 c -1.482107,1.010527 -3.233682,1.616842 -5.153686,1.616842 -5.052634,0 -9.1621053,-4.109474 -9.1621053,-9.162106 0,-5.052631 4.1094723,-9.1621052 9.1621053,-9.1621052 5.052634,0 9.162105,4.1094742 9.162105,9.1621052 0,1.920001 -0.606315,3.705264 -1.616843,5.153685 l 5.524212,5.490527 C 30.686316,23.27579 32,19.806316 32,16 32,7.174737 24.825263,0 16,0 7.1747369,0 0,7.174737 0,16 c 0,8.825264 7.1747369,16 16,16 3.806317,0 7.309474,-1.347375 10.037895,-3.536843 z m 11.44656,9.034317 h -0.0261 c -0.0036,0 -0.0061,0.0053 -0.0061,0.01324 0,0.0079 0.0024,0.01324 0.0061,0.01324 h 0.0261 c 0.0036,0 0.0061,-0.0053 0.0061,-0.01324 0,-0.0066 -0.0024,-0.01324 -0.0061,-0.01324 z m 0,-0.0437 h -0.0261 c -0.0036,0 -0.0061,0.0053 -0.0061,0.01324 0,0.0079 0.0024,0.01324 0.0061,0.01324 h 0.0261 c 0.0036,0 0.0061,-0.0053 0.0061,-0.01324 0,-0.0079 -0.0024,-0.01324 -0.0061,-0.01324 z m -0.0261,-0.04502 c -0.0036,0 -0.0061,0.0053 -0.0061,0.01324 0,0.0079 0.0024,0.01324 0.0061,0.01324 h 0.0261 c 0.0036,0 0.0061,-0.0053 0.0061,-0.01324 0,-0.0079 -0.0024,-0.01324 -0.0061,-0.01324 z m 0.02853,-0.13507 v -0.02649 c 0,-0.03708 -0.03035,-0.05297 -0.05889,-0.05297 -0.02853,0 -0.05889,0.01721 -0.05889,0.05297 v 0.02649 c 0,0.02384 0.0042,0.04767 0.01214,0.06489 l 0.03035,0.06489 c 0.0018,0.004 0.0024,0.0079 0.0024,0.01324 v 0.08475 c 0,0.0053 0.0012,0.0093 0.0036,0.01059 l 0.01761,0.01192 c 0.003,0.0013 0.0061,-0.0026 0.0061,-0.01059 v -0.09534 c 0,-0.0053 0.0012,-0.0093 0.0024,-0.01324 l 0.03096,-0.06621 c 0.0079,-0.01721 0.01214,-0.04105 0.01214,-0.06489 z m -0.05889,-0.0013 c -0.02914,0 -0.04492,-0.01721 -0.04553,-0.02383 v 0 c 6.07e-4,-0.0066 0.01639,-0.02384 0.04553,-0.02384 0.02914,0 0.04432,0.01721 0.04553,0.02384 -0.0012,0.0066 -0.01639,0.02383 -0.04553,0.02383 z" />
  </symbol>
  <symbol id="pixel-phone">
    <path
     d="M 21.395935,0.00540925 C 23.233708,0.0980137 24.694536,1.61753 24.694536,3.4786761 V 5.056906 c 0.416078,0.2412985 0.696491,0.6899785 0.696491,1.2038895 v 1.391711 c 0,0.5152135 -0.280427,0.962578 -0.696491,1.202588 V 9.927226 c 0.416078,0.239994 0.696491,0.688676 0.696491,1.20389 v 1.390409 c 0,0.515213 -0.280427,0.962577 -0.696491,1.202587 V 28.52139 C 24.694536,30.442639 23.137176,32 21.217264,32 H 10.086244 C 8.1662985,32 6.6089725,30.442639 6.6089725,28.52139 V 3.4786095 C 6.6089725,1.5573606 8.1663325,0 10.086244,0 h 11.13102 z M 10.086278,1.3918779 c -1.1516985,0 -2.0868965,0.9338954 -2.0868965,2.0868985 V 28.521557 c 0,1.153001 0.935198,2.086898 2.0868965,2.086898 h 11.131017 c 1.151701,0 2.0869,-0.933896 2.0869,-2.086898 V 3.4787764 c 0,-1.1165075 -0.8778,-2.0281982 -1.979951,-2.084294 l -0.106951,-0.00261 h -2.086898 c 0,0.7682457 -0.623467,1.391711 -1.391712,1.391711 h -4.173797 c -0.743471,0 -1.348671,-0.5843318 -1.387771,-1.3173507 -0.0013,-0.024782 -0.0039,-0.049565 -0.0039,-0.074347 z"
     fill-rule="evenodd"
     fill="currentColor"
     id="path1"
     style="stroke-width:0.333904" />
  </symbol>
  <symbol id="invitation"> 
    <path
     d="M 3.1220705,5 C 1.3899355,5 0,6.456594 0,8.207031 v 16.208008 c 0,1.750398 1.3899355,3.21875 3.1220705,3.21875 H 28.877929 C 30.610064,27.633789 32,26.165437 32,24.415039 V 8.207031 C 32,6.456594 30.610064,5 28.877929,5 Z m 0,1.560547 H 28.877929 c 0.230986,0 0.449256,0.0672 0.646485,0.15918 L 16.963867,18.646485 c -0.576546,0.547355 -1.325799,0.547394 -1.90332,0 L 2.475586,6.719727 C 2.672815,6.627747 2.8910855,6.560547 3.1220705,6.560547 Z M 1.584961,8.024414 10.475586,16.451172 1.7314455,25.182617 C 1.621943,24.955223 1.560547,24.695663 1.560547,24.415039 V 8.207031 c 0,-0.06338 0.01856,-0.121544 0.024414,-0.182617 z m 28.829101,0 h 10e-4 c 0.0062,0.06107 0.02344,0.119242 0.02344,0.182617 v 16.208008 c 0,0.276565 -0.06335,0.530845 -0.169922,0.755859 l -8.719747,-8.731445 z m -9.999023,9.5 8.536133,8.548828 H 28.877929 3.1220705 3.060547 l 8.548828,-8.537109 2.378906,2.244141 c 1.132604,1.073638 2.915482,1.07516 4.047852,0 z"
     style="baseline-shift:baseline;display:inline;overflow:visible;stroke-width:0.5;enable-background:accumulate"
     fill="currentColor" />
  </symbol>
  <symbol id="copy">
    <path
     d="m 25.142858,16.457143 a 0.91428571,0.91428571 0 0 1 -0.914287,0.914286 h -9.142966 a 0.914286,0.914286 0 0 1 0,-1.828572 h 9.142966 a 0.91428571,0.91428571 0 0 1 0.914287,0.914286 z M 24.228571,19.2 h -9.142966 a 0.91428571,0.91428571 0 0 0 0,1.828571 h 9.142966 a 0.91428571,0.91428571 0 0 0 0,-1.828571 z m 0,3.657143 h -9.142966 a 0.91428571,0.91428571 0 0 0 0,1.828571 h 9.142966 a 0.91428571,0.91428571 0 0 0 0,-1.828571 z m 6.4,-9.142857 V 28.342857 A 3.6571429,3.6571429 0 0 1 26.971429,32 H 12.342858 A 3.6571429,3.6571429 0 0 1 8.6857142,28.342857 V 26.514286 H 5.0285714 A 3.6571429,3.6571429 0 0 1 1.3714285,22.857143 V 6.4 A 3.6571429,3.6571429 0 0 1 5.0285714,2.7428571 h 4.5713188 a 2.7428571,2.7428571 0 0 1 5.4857148,0 h 4.571537 A 3.6571429,3.6571429 0 0 1 23.314285,6.4 v 3.657143 h 3.657144 a 3.6571429,3.6571429 0 0 1 3.657142,3.657143 z M 12.342858,10.057143 h 9.142856 V 6.4 A 1.8306743,1.8306743 0 0 0 19.657142,4.5714286 H 17.828571 V 6.4 H 6.8571428 V 4.5714286 H 5.0285714 A 1.8306743,1.8306743 0 0 0 3.1999999,6.4 v 16.457143 a 1.8306743,1.8306743 0 0 0 1.8285715,1.828571 H 8.6857142 V 13.714286 A 3.6571429,3.6571429 0 0 1 12.342858,10.057143 Z M 28.8,13.714286 A 1.8306743,1.8306743 0 0 0 26.971429,11.885714 H 12.342858 a 1.8306743,1.8306743 0 0 0 -1.828572,1.828572 v 14.628571 a 1.8306743,1.8306743 0 0 0 1.828572,1.828572 H 26.971429 A 1.8306743,1.8306743 0 0 0 28.8,28.342857 Z"
     id="path1"
     style="stroke-width:1.82857" />
  </symbol>
  <symbol id="whatsapp">
    <path
     d="m 0.846548,30.909175 c -0.070993,0.30128 0.017315,0.619856 0.2441391,0.838029 C 1.258643,31.911694 1.4802733,32 1.7105428,32 c 0.076188,0 0.1506377,-0.0087 0.2216303,-0.02597 l 7.2118505,-1.875214 c 2.0881564,0.971362 4.3166054,1.463115 6.6400444,1.463115 8.700763,0 15.780965,-7.078429 15.780965,-15.780965 C 31.565033,7.0802021 24.481728,0 15.780965,0 7.0802021,0 0,7.0802021 0,15.780965 c 0,3.005839 0.841486,5.913097 2.4431196,8.435693 z M 8.7680587,8.7550092 9.910829,7.6693752 c 0.434604,-0.412095 1.121981,-0.3947768 1.534081,0.039823 l 2.574723,2.7132428 c 0.412095,0.434604 0.394777,1.121981 -0.03982,1.534081 l -1.125485,1.073532 c 0,0 -1.48909,0.895165 1.631066,3.909692 l 0.128129,0.136786 c 2.850033,3.270775 3.821394,1.830178 3.821394,1.830178 L 19.5604,17.833177 c 0.434604,-0.412095 1.121981,-0.394776 1.534081,0.03982 l 2.531417,2.66475 c 0.412095,0.434604 0.394777,1.121981 -0.03982,1.534081 l -1.14277,1.085634 c -0.872691,0.829385 -2.096844,1.210323 -3.275962,0.966175 -1.599905,-0.327251 -3.994532,-1.463115 -7.208304,-4.659556 0.06233,0.07099 0.124667,0.136786 0.187003,0.212974 l -0.38959,-0.408629 c 0.0658,0.07099 0.133324,0.133324 0.199122,0.199121 C 8.9289491,16.09806 7.9177386,13.647982 7.6735906,12.03407 7.5004397,10.834163 7.8952209,9.5840351 8.7679125,8.7546501 Z"
     id="path1"
     style="stroke-width:0.443261" />
  </symbol>
  <symbol id="call">
    <path
     d="m 10.663387,11.776848 c 0.696,-0.695999 0.93971,-1.714733 0.62355,-2.6478095 L 9.0167175,2.3118099 C 8.5951723,1.0405983 7.2404934,0.2941261 5.9429199,0.6190531 4.2676979,1.034011 2.0480076,1.9846909 0.9633989,4.1539061 -0.5142025,7.1112985 -1.2914202,14.940404 6.3534491,23.421893 c 0.882604,0.977029 1.894763,1.910105 3.001292,2.766404 C 11.980632,28.212613 17.623217,32 23.063965,32 c 1.79376,0 3.563352,-0.410568 5.199062,-1.433703 0.990182,-0.619166 1.719119,-1.585179 2.050622,-2.720259 l 0.590613,-2.000148 c 0.393005,-1.343661 -0.338112,-2.742236 -1.664205,-3.181373 l -6.272598,-2.09019 c -0.854051,-0.287617 -1.809161,-0.09661 -2.496337,0.483024 l -1.85525,1.578602 c -0.01098,0.01098 -0.03293,0.02195 -0.06147,0.01756 -1.585181,-0.382026 -6.93583,-2.180175 -9.3352672,-9.385843 -0.00659,-0.02196 0,-0.0505 0.021954,-0.06806 z"
     id="path1"
     style="stroke-width:0.56206" />
  <path
     d="m 24.29336,15.272301 c 0,0.619165 0.504978,1.12412 1.124122,1.12412 0.619143,0 1.124121,-0.504977 1.124121,-1.12412 0,-5.4185982 -4.406444,-9.8186306 -9.818639,-9.8186306 -0.619166,0 -1.124122,0.5049774 -1.124122,1.1241205 0,0.6191431 0.504978,1.1241205 1.124122,1.1241205 4.175943,-0.00659 7.570396,3.3943376 7.570396,7.5703896 z"
     id="path2"
     style="stroke-width:0.56206" />
  <path
     d="M 31.99303,15.272301 C 31.99303,6.8526383 25.140948,0 16.720716,0 16.10155,0 15.596594,0.5049774 15.596594,1.1241205 c 0,0.619143 0.504978,1.1241204 1.124122,1.1241204 7.183698,0 13.024071,5.8403679 13.024071,13.0240601 0,0.619165 0.504978,1.12412 1.124122,1.12412 0.619166,0 1.124121,-0.504977 1.124121,-1.12412 z"
     id="path3"
     style="stroke-width:0.56206" />
  </symbol>
  <symbol id="send-mail">
    <path
     d="M 2.6779899,7.3345682e-5 C 1.1187839,-0.01413665 -0.44221507,2.0391587 0.11548993,3.7891367 1.0178959,6.5799527 2.0713069,9.4594237 3.2111929,12.400465 c 0.186231,0.481371 0.560369,0.830177 1.007813,0.943359 l 8.6367191,2.166016 c 0.457458,0.114611 0.457458,0.863903 0,0.978515 l 0.0039,0.002 -8.6367231,2.166019 c -0.448691,0.111749 -0.821591,0.463418 -1.007812,0.943359 -1.141135,2.941223 -2.194546,5.820659 -3.09570297,8.611327 -0.638687,1.999986 1.49041297,4.396667 3.22265597,3.650391 8.4065181,-3.650385 17.8627401,-8.941258 27.2480471,-13.537108 1.881058,-0.92119 1.881058,-3.731046 0,-4.652344 C 21.202233,9.0790237 11.746616,3.7905647 3.3400999,0.13874575 3.1235569,0.04544175 2.9007339,0.00210375 2.6779899,7.3345682e-5 Z"
     style="stroke-width:0.342571"
     id="path18" />
  </symbol>
</svg>