<?xml version="1.0" encoding="UTF-8" standalone="no"?>
<svg style="margin: auto; width: 300px;" version="1.1" x="0px" y="0px" viewBox="0 0 89.833961 89.202927" enable-background="new 0 0 100 100"
  xml:space="preserve" id="svg2" sodipodi:docname="vortex.svg" width="150" height="150"
  inkscape:version="1.3.2 (091e20e, 2023-11-25, custom)" xmlns:inkscape="http://www.inkscape.org/namespaces/inkscape"
  xmlns:sodipodi="http://sodipodi.sourceforge.net/DTD/sodipodi-0.dtd" xmlns="http://www.w3.org/2000/svg"
  xmlns:svg="http://www.w3.org/2000/svg">
  <style>
  /* Rotating the circular path */
  .rotate {
    transform-origin: center; /* Set rotation origin to the center of the path */
    animation: rotate-clockwise 10s linear infinite;
  }

  /* Define the keyframes for rotation */
  @keyframes rotate-clockwise {
    from {
      transform: rotate(0deg);
    }
    to {
      transform: rotate(360deg);
    }
  }
</style>
  <path class="rotate" fill="currentColor"  style="stroke: none !important;"
    d="m 6.13,68.210927 c 16.87,25.242 56.87,27.242 73.87,0.242 3,-5 5,-10 6,-16 0,-4 0,-8 0,-12 0,-3 -2,-7 -3,-10 -5,-14 -18,-21.9999996 -33,-23.9999996 -5,-1 -10,0 -15,2 -4,1 -7,3.9999996 -11,5.9999996 -4,3 -7,7 -10,12 -9,18 -1,41 19,48 5,2 10,1 15,1 6,-1 12,-4 17,-8 9,-8 12,-22 7,-33 -4,-7 -10,-12 -17,-15 -3,-1 -6,-1 -9,-1 -11,1 -21,8 -23,20 -2,11 6,22 17,25 4,0 7,1 11,-1 4,-2 8,-5 10,-9 -5,10 -18,13 -28,7 -4,-3 -7,-6 -9,-11 -1,-5 -1,-11 1,-16 3,-5 7,-9 12,-12 11,-5 25,-2 32,9 4,7 5,14 4,22 -4,19 -26,28 -43,20 -6,-3 -10,-8 -14,-13 -7,-11 -7,-26 2,-37 5,-5 9,-11 16,-12.9999996 5,-2 10,-3 16,-2 8,1 16,2.9999996 22,8.9999996 15,13 17,33 8,50 -6,11 -17,18 -29,20 -15,2 -29,-3 -39,-13 -6,-7 -10,-15 -12,-24 5,27 35,46 61,34 4,-2 7,-5 11,-8 5,-4 8,-10 11,-16 3,-8 3,-16 1,-24 -2,-7 -6,-14 -12,-19 -14,-11.9999996 -33,-11.9999996 -48,-1 -4,4 -7,8 -9,13 -1,4 -2,7 -3,11 -2,11 4,19 10,27 3,3 7,4 10,6 5,3 10,3 15,2 8,-1 15,-5 20,-11 2,-3 3,-6 5,-9 3,-7 2,-16 -3,-23 -4,-4 -8,-8 -13,-10 -15,-6 -34,6 -32,23 1,6 4,11 9,15 7,5 17,4 23,-2 -7,7 -18,6 -25,0 -6,-7 -8,-16 -4,-25 1,-3 4,-6 6,-8 3,-1 6,-4 9,-4 6,0 11,0 16,2 5,2 9,7 12,12 6,14 0,32 -15,37 -8,3 -16,3 -24,0 -17,-8 -23,-30 -14,-46 2,-4 5,-6 8,-9 3,-2 6,-5 10,-6 11,-3.9999996 21,-1.9999996 31,3 7,4 12,11 15,18 5,11 4,23 -1,33 -5,10 -14,17 -25,20 -17,5 -35,-1 -46,-16 -5,-7 -7,-14 -8,-22 0,-4 0,-9 0,-13 -5,28 19,57 49,52 4,-1 8,-2 12,-4 15,-8 24,-23 22,-40 -1,-5 -2,-10 -5,-14 -2,-3 -4,-7 -7,-9 -4,-3 -9,-6 -13,-8 C 53,8.4529274 46,8.4529274 39,9.4529274 31,11.452927 26,16.452927 20,21.452927 c -6,7 -8,16 -7,25 2,14 13,25 27,27 7,1 13,-1 19,-4 9,-5 13,-15 13,-25 -1,-17 -19,-29 -35,-21 -4,2 -7,5 -9,8 -2,5 -3,10 -2,16 1,5 4,8 8,11 5,4 11,4 17,2 -8,3 -17,0 -22,-7 -3,-5 -4,-12 -2,-18 1,-4 4,-6 6,-9 5,-4 11,-6 18,-5 5,1 9,4 13,7 2,2 4,4 5,7 4,9 2,20 -4,28 -9,11 -25,13 -37,5 -10,-7 -16,-17 -14,-29 1,-4 2,-7 3,-11 9,-18.9999996 33,-23.9999996 50,-13 5,3 8,8 11,12 4,7 5,14 5,22 -1,11 -7,21 -16,28 -6,3 -11,6 -18,7 -5,1 -11,0 -16,-1 -6,-2 -12,-5 -17,-9 -2,-3 -5,-5 -7,-8 -10,-15 -9,-33 0,-48 -13,20 -8,48 13,60 5,3 10,6 16,6 7,0 14,0 21,-3 4,-2 7,-4 11,-7 5,-4 7,-9 10,-14 2,-5 2,-10 3,-15 0,-6 -2,-12 -5,-18 -4,-7 -10,-12 -17,-15 -6,-2.9999996 -13,-2.9999996 -19,-2 -9,1 -16,6 -22,13 -13,17 -5,42 15,48 11,3 23,0 30,-9 1,-2 3,-5 4,-7 7,-17 -8,-38 -27,-33 -5,2 -10,5 -13,10 -3,5 -3,11 -1,17 3,6 8,10 15,11 -9,-1 -17,-9 -16,-18 1,-7 3,-14 10,-17 4,-2 8,-3 12,-3 11,1 19,10 21,21 1,8 -2,17 -9,22 -4,3 -9,5 -14,6 -7,1 -13,-1 -19,-5 -5,-3 -9,-7 -11,-13 -2,-4 -3,-9 -2,-14 1,-4 2,-7 3,-11 1,-4 5,-6 7,-9 3,-3 6,-5 10,-6 20,-7.9999996 45,6 46,28 0,6 1,13 -2,19 -7,15 -23,24 -39,23 -12,-1 -22,-7 -29,-16 -9,-13 -11,-29 -4,-43 5,-8 10,-15.9999996 19,-19.9999996 C 8,14.452927 -1,36.452927 6,56.452927 c 3,7 7,13 12,17 3,2 5,5 8,6 7,2 14,5 21,4 5,-1 9,-2 14,-4 6,-3 10,-7 14,-12 2,-3 4,-7 5,-10 4,-14 1,-28 -11,-38 -3,-2 -6,-4 -9,-6 -12,-4.9999996 -26,-3 -35,6 -3,4 -6,8 -8,12 -4,12 -1,24 8,33 5,4 12,6 18,7 9,0 16,-4 22,-11 4,-6 5,-12 4,-19 -2,-8 -7,-14 -14,-17 -5,-2 -11,-1 -16,1 -12,5 -15,22 -5,31 -9,-9 -7,-24 4,-30 4,-2 8,-2 12,-2 2,0 5,1 7,2 13,7 15,26 5,36 -2,2 -4,4 -6,5 -6,3 -13,4 -20,2 -12,-4 -20,-15 -20,-28 0,-4 1,-7 3,-11 3,-6 7,-10 12,-14 16,-9.9999996 38,-3 46,14 1,4 2,7 3,11 1,7 -1,14 -3,20 -8,17 -30,25 -48,18 -3,-1 -6,-4 -9,-5 -5,-3 -9,-9 -12,-15 -12,-25 6,-54.9999996 33,-58.99999957 5,0 9,0 14,0 C 27,-3.5470726 0,19.452927 5,49.452927 c 1,6 3,10 6,15 4,5 8,10 14,13 4,2 8,3 13,4 8,1 15,0 22,-3 5,-2 8,-6 12,-9 8,-10 11,-24 6,-36 -2,-3 -3,-7 -6,-10 -10,-10 -24,-14.9999996 -37,-9 -10,5 -16,14 -18,25 -1,4 0,8 1,12 2,6 6,10 11,14 3,2 5,3 8,4 14,3 29,-6 31,-21 1,-7 -3,-13 -7,-18 -9,-9 -26,-7 -31,5 -1,3 -2,6 -1,9 -1,-10 7,-18 16,-19 10,-1 19,6 22,15 1,7 0,14 -5,20 -3,3 -6,5 -10,7 -3,1 -5,2 -8,2 -15,0 -29,-14 -26,-31 1,-4 2,-7 3,-10 9,-16 31,-19.9999996 45,-9 4,3 8,7 10,12 3,6 4,12 3,19 -2,8 -5,15 -11,21 -12,10 -27,12 -41,6 -11,-6 -19,-16 -21,-29 -1,-9 0,-17 4,-25 4,-7 9,-13 16,-15.9999996 4,-1 7,-4 11,-5 19,-4 39,4 48,20.9999996 -14,-24.9999996 -52,-30.9999996 -71,-6 -3,4 -4,7 -6,11 -5,12 -3,24 4,35 3,3 5,6 8,9 5,4 10,7 16,8 8,1 16,0 23,-3 8,-4 14,-11 18,-19 2,-5 2,-10 2,-15 -1,-8 -4,-14 -9,-20 -4,-3 -8,-5 -12,-8 -3,-2 -7,-1 -10,-1 -13,-1 -26,7 -29,20 -3,11 0,22 10,29 3,2 6,4 10,5 10,2 18,-2 24,-10 1,-2 2,-4 3,-7 3,-14 -8,-28 -23,-25 -4,1 -6,3 -9,5 7,-6 19,-8 26,0 4,5 7,11 6,17 -1,5 -3,10 -7,14 -6,5 -13,6 -20,5 -3,0 -6,-1 -8,-3 -2,-2 -5,-3 -7,-6 -6,-7 -7,-17 -4,-25 2,-3 2,-6 5,-9 7,-7 15,-11 25,-10 6,1 12,3 17,7 5,6 10,12 11,20 2,18 -10,35 -28,38 -7,1 -14,1 -20,-2 -18,-8 -27,-27 -22,-46 2,-6 5,-11 9,-16 4,-4 8,-6.9999996 13,-8.9999996 6,-2 13,-4 20,-4 14,2 27,9.9999996 34,21.9999996 7,12 7,26 3,38 9,-24 -4,-53.9999996 -31,-58.9999996 -4,0 -7,-1 -11,-1 -9,1 -18,4 -25,9.9999996 -9,9 -15,20 -13,33 2,6 2,12 6,18 5,7 11,11 18,14 5,2 10,3 16,2 4,-1 7,-2 11,-3 9,-4 17,-12 18,-22 1,-4 3,-7 2,-11 -2,-8 -4,-14 -9,-20 -12,-12 -36,-12 -45,4 -3,5 -6,10 -5,16 2,13 12,25 26,24 14,-1 24,-16 19,-29 -3,-6 -8,-10 -15,-12 9,2 15,9 16,18 1,8 -4,14 -9,19 -2,2 -6,2 -9,3 -5,1 -10,0 -14,-2 -6,-3 -10,-8 -12,-14 -3,-9 0,-16 4,-24 2,-4 6,-6 10,-8 4,-2 8,-2 12,-3 4,0 9,1 13,3 7,3 12,9 15,16 2,5 2,10 2,15 0,7 -4,12 -8,18 -11,13 -29,15 -44,6 -7,-5 -12,-11 -15,-19 -4,-11 -2,-22 4,-32 2,-3 4,-6 7,-9 10,-7.9999996 22,-9.9999996 34,-8.9999996 9,2 16,6.9999996 23,12.9999996 18,19 13,49 -8,65 -4,3 -8,2 -11,6 28,-11 41,-48 19,-71 -3,-3 -6,-6 -10,-7.9999996 -5,-2 -10,-4 -15,-5 -6,-1 -12,0 -18,1 -6,2 -12,4.9999996 -16,9.9999996 -7,8 -11,18 -11,28 1,5 2,11 4,16 2,5 6,8 10,12 5,4 11,6 18,7 5,1 10,0 15,-2 8,-4 15,-9 19,-17 5,-13 3,-28 -8,-37 -9,-7 -21,-9 -31,-4 -5,3 -10,6 -12,12 -5,13 -2,29 12,34 5,2 9,1 14,1 5,-1 8,-5 11,-8 2,-2 3,-5 4,-7 1,-3 0,-6 0,-9 -1,-2 -2,-5 -3,-7 4,9 4,19 -3,26 -7,5 -17,8 -25,3 -4,-3 -7,-6 -9,-10 -2,-5 -4,-9 -3,-14 1,-5 2,-10 6,-14 6,-7 16,-9 25,-8 14,2 24,15 24,29 0,6 -3,12 -6,18 -4,6 -9,8 -15,11 -5,2 -10,3 -16,2 -3,0 -5,-1 -8,-2 -20,-8 -29,-33 -17,-52 3,-4 6,-9 11,-12 8,-4.9999996 17,-6.9999996 27,-5.9999996 8,1 15,4 21,8.9999996 19,16 19,46 1,63 -4,3 -7,6 -12,8 -12,5 -25,5 -37,0 25,11 58,-4 62,-33 1,-9 0,-17 -4,-25 -2,-4 -5,-7 -8,-11 -3,-4 -8,-5 -12,-7.9999996 -3,-2 -7,-2 -11,-3 -15,-2 -29,4 -37,16.9999996 -7,12 -8,26 -1,38 3,3 5,6 8,9 4,4 9,5 13,7 5,1 10,1 15,0 7,-1 12,-4 17,-9 7,-7 10,-17 8,-27 -1,-3 -2,-6 -3,-9 -9,-16 -32,-20 -45,-5 -4,6 -6,13 -5,20 2,12 13,19 24,18 9,-1 18,-9 17,-19 1,10 -9,18 -18,19 -8,1 -15,-3 -19,-9 -3,-5 -5,-10 -4,-16 1,-5 3,-9 6,-13 4,-3 8,-8 14,-8 7,-1 13,0 19,3 15,9 18,31 6,44 -3,4 -8,7 -12,9 -5,2 -10,2 -15,2 -3,0 -5,-1 -8,-2 -21,-8 -29,-36 -14,-54 15,-19.99999957 45,-18.9999996 60,1 3,4 5,8 7,13 4,17 -1,34 -15,45 -17,12 -40,12 -55.196,-2.222 -6.488,-6.053 -8.674,-9.02 -8.674,-9.02 z"
    id="path1" />
</svg>