<?xml version="1.0" encoding="UTF-8" standalone="no"?>
<svg
   width="180px"
   viewbox="0 0 1900 250"
   preserveAspectRatio="xMidYMid meet"
   id="svg2"
   version="1.1"
   inkscape:version="1.1 (c68e22c387, 2021-05-23)"
   sodipodi:docname="ASLogoInteractiveFull.svg"
   inkscape:export-filename="E:\DOCUMENTOS\ESCRITORIO\ASLogo.png"
   inkscape:export-xdpi="300"
   inkscape:export-ydpi="300"
   xmlns:inkscape="http://www.inkscape.org/namespaces/inkscape"
   xmlns:sodipodi="http://sodipodi.sourceforge.net/DTD/sodipodi-0.dtd"
   xmlns="http://www.w3.org/2000/svg"
   xmlns:svg="http://www.w3.org/2000/svg"
   xmlns:rdf="http://www.w3.org/1999/02/22-rdf-syntax-ns#"
   xmlns:cc="http://creativecommons.org/ns#"
   xmlns:dc="http://purl.org/dc/elements/1.1/">
  <style
     id="style2">

      .A {
         transform-box: fill-box;
         animation: A-animation 3s ease-in-out;
         animation-fill-mode: forwards;
         transform-origin: center;
         transition: all 0.5s;
      }

      .S {
         transform-box: fill-box;
         transform-origin: center;
         stroke-dasharray: 300,300;
         animation: S-animation 3s ease-in-out;
         animation-iteration-count: 1; 
         transition: all 0.5s;
      }

      .AS-container:hover .A {
         transform: scale(0.35) translate(260px, -40px);
         stroke-width: 50 !important;
      }

      .dark .AS-container:hover .A {
         fill: black !important;
         stroke: black !important;
      }

      .AS-container:hover .S {
         stroke-dashoffset: -100;
         transform: translate(-80px, 0px);
      }

      .AS-container {
         pointer-events: bounding-box; /* Ensures hover works on the bounding box of the SVG */
      }


      @keyframes A-animation {
         0% {stroke-dashoffset: 700; stroke-dasharray: 700;}
         20% {stroke-dashoffset: 520; stroke-dasharray: 700;}
         30% {stroke-dashoffset: 520; stroke-dasharray: 700;}
         60% {stroke-dashoffset: 353; stroke-dasharray: 700;}
         70% {stroke-dashoffset: 353; stroke-dasharray: 700;}
         100% {stroke-dashoffset: 0; stroke-dasharray: none !important;}
      }

      @keyframes S-animation {
         0% {stroke-dashoffset: 310;}
         20% {stroke-dashoffset: 310;}
         60% {stroke-dashoffset: -150;}
         100% {stroke-dashoffset: 0;}
      }

      .dark path {
         stroke: white !important;
         fill: white !important;
      }
   </style>
  <defs
     id="defs4">
    <inkscape:path-effect
       is_visible="true"
       id="path-effect3819"
       effect="spiro"
       lpeversion="0" />
    <inkscape:path-effect
       effect="spiro"
       id="path-effect3815"
       is_visible="true"
       lpeversion="0" />
  </defs>
  <sodipodi:namedview
     id="base"
     pagecolor="#ffffff"
     bordercolor="#666666"
     borderopacity="1.0"
     inkscape:pageopacity="0.0"
     inkscape:pageshadow="2"
     inkscape:zoom="0.49497475"
     inkscape:cx="817.21341"
     inkscape:cy="-32.324881"
     inkscape:document-units="px"
     inkscape:current-layer="text3735"
     showgrid="false"
     inkscape:window-width="2160"
     inkscape:window-height="1346"
     inkscape:window-x="-11"
     inkscape:window-y="-11"
     inkscape:window-maximized="1"
     inkscape:document-rotation="0"
     showguides="true"
     inkscape:guide-bbox="true"
     fit-margin-top="10"
     fit-margin-left="10"
     fit-margin-right="25"
     fit-margin-bottom="10"
     lock-margins="true"
     inkscape:pagecheckerboard="0" />
  <metadata
     id="metadata7">
    <rdf:RDF>
      <cc:Work
         rdf:about="">
        <dc:format>image/svg+xml</dc:format>
        <dc:type
           rdf:resource="http://purl.org/dc/dcmitype/StillImage" />
      </cc:Work>
    </rdf:RDF>
  </metadata>
  <g
     inkscape:label="Layer 1"
     inkscape:groupmode="layer"
     id="layer1"
     transform="translate(-84.40274,-72.819038)"
     class="AS-container">
    <path
       class="S dark:light-fill"
       id="path3817"
       style="fill:none;stroke:#000000;stroke-width:20;stroke-linecap:butt;stroke-linejoin:miter;stroke-miterlimit:4;stroke-opacity:1"
       inkscape:path-effect="#path-effect3819"
       inkscape:original-d="m 379.71049,188.57495 c 0,0 133.82295,1.27234 53.97914,93.69145 -79.8438,92.4191 -100.35328,-34.24539 -100.35328,-34.24539 m 62.40075,-29.53867 c 0,0 -137.28202,-19.57539 -45.10719,-99.7011 92.17481,-80.125706 93.83707,44.80712 93.83707,44.80712"
       d="m 379.71049,188.57495 c 11.5881,-2.21726 23.85524,-0.73516 34.58183,4.17814 10.72659,4.9133 19.86122,13.23424 25.75108,23.45724 5.88985,10.22301 8.50671,22.29908 7.37707,34.0432 -1.12964,11.74411 -6.00035,23.09997 -13.73084,32.01287 -7.40567,8.5384 -17.39773,14.8033 -28.30951,17.74973 -10.91177,2.94642 -22.69917,2.56247 -33.39607,-1.08783 -10.69689,-3.6503 -20.26006,-10.55219 -27.09437,-19.55444 -6.83431,-9.00225 -10.91215,-20.06847 -11.55333,-31.35285 m 62.40075,-29.53867 c -12.11764,1.76169 -24.78817,-0.52046 -35.52962,-6.39941 -10.74145,-5.87895 -19.49303,-15.32142 -24.54044,-26.47778 -5.04741,-11.15637 -6.36208,-23.96348 -3.68649,-35.91262 2.67559,-11.94915 9.3263,-22.97269 18.64936,-30.91129 8.31548,-7.08065 18.70756,-11.69224 29.53715,-13.10741 10.82959,-1.41517 22.05772,0.37117 31.91345,5.07727 9.85572,4.7061 18.30358,12.31503 24.01113,21.62667 5.70755,9.31164 8.65425,20.29249 8.37534,31.21059"
       sodipodi:nodetypes="csccsc" />
    <path
       id="path836"
       class="A dark:light-fill"
       style="fill:none;stroke:#000000;stroke-width:20;stroke-linecap:square;stroke-miterlimit:9.1;paint-order:fill markers stroke"
       inkscape:transform-center-y="-29.518349"
       d="m 217.25988,119.74563 73.68312,184.96723 -148.79481,-10e-6 z"
       sodipodi:nodetypes="cccc" />
    <rect
       style="opacity:0;fill:#ffffff;stroke:#000000;stroke-width:0;stroke-linecap:square;stroke-miterlimit:9.1;stroke-dasharray:none;paint-order:fill markers stroke"
       id="rect836"
       width="391.42859"
       height="240.71429"
       x="94.40274"
       y="82.819038" />
    <g
       aria-label="ANDRES  GUILLERMO SOTO RANGEL"
       style="font-style:normal;font-variant:normal;font-weight:normal;font-stretch:normal;font-size:67.4213px;line-height:1.25;font-family:'Reem Kufi';-inkscape-font-specification:'Reem Kufi, Normal';font-variant-ligatures:normal;font-variant-caps:normal;font-variant-numeric:normal;font-feature-settings:normal;text-align:start;letter-spacing:0px;word-spacing:0px;writing-mode:lr-tb;text-orientation:upright;text-anchor:start;fill:#000000;fill-opacity:1;stroke:none;stroke-width:1.68552"
       id="text3735"
       transform="matrix(0.37037037,0,0,0.37037037,368.93295,-125.35071)">
      <path
         id="path3818-3"
         style="stroke:#000000;stroke-width:13.049"
         d="m 3287.3517,715.83336 c -25.2851,0 -48.615,4.8898 -70.4173,14.65191 -0.023,0.008 -0.054,0.0232 -0.077,0.031 -21.6361,9.50678 -40.7098,22.69022 -57.4587,39.76748 -0.023,0.031 -0.054,0.0619 -0.077,0.0906 -16.7063,16.70619 -29.7384,35.92159 -39.2686,57.91234 -9.1336,21.8771 -13.6993,44.95534 -13.6993,69.58551 0,25.72392 4.6,49.51844 13.7296,71.71752 9.5201,21.95011 22.5016,40.95768 39.1475,57.27728 16.7439,16.4154 35.8646,29.3166 57.5646,38.8601 21.8187,9.0974 45.219,13.6691 70.5532,13.6691 24.9902,0 48.2303,-4.5629 70.0845,-13.6842 l 0.031,-0.015 c 22.3524,-9.537 41.7328,-22.59 58.4264,-39.2835 0.031,-0.023 0.062,-0.054 0.091,-0.077 17.0515,-16.7235 30.2393,-35.93364 39.7524,-57.91232 9.4473,-21.82631 14.1682,-45.21585 14.1682,-70.55323 -1e-4,-24.60268 -4.7043,-47.64493 -14.1682,-69.50995 -9.5131,-21.97867 -22.7009,-41.1888 -39.7524,-57.91234 -0.054,-0.0542 -0.1114,-0.11071 -0.1664,-0.16645 -16.6959,-17.02322 -36.0575,-30.20178 -58.3811,-39.72211 -0.07,-0.0232 -0.1316,-0.0542 -0.1966,-0.0774 -21.8226,-9.77124 -44.9708,-14.65191 -69.8879,-14.65191 z m 719.7459,0 c -25.2851,0 -48.615,4.8898 -70.4172,14.65191 -0.023,0.008 -0.054,0.0232 -0.078,0.031 -21.6361,9.50678 -40.7098,22.69022 -57.4587,39.76748 -0.023,0.031 -0.054,0.0619 -0.077,0.0906 -16.7085,16.70852 -29.7552,35.92546 -39.2836,57.91234 -9.1321,21.87315 -13.6843,44.95085 -13.6843,69.58551 0,25.72818 4.5865,49.52238 13.7144,71.71752 9.5186,21.94623 22.5145,40.95538 39.1627,57.27728 16.7439,16.4154 35.8646,29.3166 57.5646,38.8601 21.8187,9.0974 45.219,13.6691 70.5532,13.6691 24.9902,0 48.2303,-4.5629 70.0845,-13.6842 l 0.031,-0.015 c 22.3524,-9.537 41.7328,-22.59 58.4264,-39.2835 0.031,-0.023 0.062,-0.054 0.091,-0.077 17.0514,-16.7235 30.2392,-35.93364 39.7523,-57.91232 9.4473,-21.82631 14.1682,-45.21585 14.1681,-70.55323 1e-4,-24.60261 -4.7042,-47.64493 -14.1681,-69.50995 -9.5131,-21.97867 -22.7009,-41.1888 -39.7523,-57.91234 -0.054,-0.0542 -0.1115,-0.11071 -0.1665,-0.16645 -16.6959,-17.02322 -36.0575,-30.20178 -58.3811,-39.72211 -0.07,-0.0232 -0.1316,-0.0542 -0.1966,-0.0774 -21.8226,-9.77124 -44.9708,-14.65191 -69.8879,-14.65191 z m -1090.5663,2.11684 c -20.7949,1.00505 -38.6822,5.5004 -54.0112,13.3214 -0.031,0.0155 -0.062,0.031 -0.091,0.0465 -14.969,7.48446 -26.4095,17.74444 -35.0498,31.31498 0,0.006 -0.01,0.008 -0.015,0.0155 -8.1212,12.95862 -12.278,28.14115 -12.278,46.4962 0,15.14459 2.827,27.34684 7.9686,37.1516 5.8876,10.18125 13.1671,18.69205 22.0309,25.73546 9.6865,7.41611 20.1519,13.69673 31.4813,18.88575 12.3292,5.13421 24.3327,9.92948 35.9721,14.37978 12.6465,4.70353 24.4621,10.16693 35.4279,16.37578 11.8971,6.53423 21.8839,14.63177 29.561,24.32916 8.2711,10.44772 12.4141,23.48476 12.4141,37.46917 0,16.31407 -4.6409,31.00412 -14.3495,42.06582 -8.5711,10.1476 -19.5625,17.7881 -32.3282,22.5752 -0.1006,0.039 -0.2012,0.07 -0.3027,0.106 -12.3268,4.2374 -25.1395,6.381 -38.2251,6.381 -17.6932,0 -36.0112,-3.859 -54.858,-11.2499 -13.8314,-5.424 -25.7147,-11.9019 -36.6072,-18.931 l -12.9125,22.8002 c 12.8194,8.0305 27.12,15.3405 44.0012,21.3354 20.6622,7.2153 42.454,10.8416 65.5937,10.8416 24.6996,0 45.0749,-4.4367 61.5413,-12.8224 h 0.015 c 17.1716,-8.9195 29.8143,-20.3191 38.7242,-34.4298 8.9529,-14.5267 13.3818,-30.4423 13.3818,-48.67359 0,-22.12646 -4.3966,-38.69571 -12.1723,-50.5032 -0.023,-0.0387 -0.054,-0.0697 -0.077,-0.10606 -8.4577,-13.15666 -18.9955,-23.21256 -32.0106,-30.64973 -14.0938,-8.05356 -28.6624,-14.92713 -43.7442,-20.62463 l 0.1812,0.0619 c -13.9357,-5.00252 -27.2032,-10.553 -39.7826,-16.66299 -0.081,-0.031 -0.161,-0.0697 -0.2415,-0.10606 -13.0134,-6.69264 -23.9378,-14.29076 -32.6457,-22.99858 -0.062,-0.0619 -0.1215,-0.12 -0.1811,-0.18116 -9.508,-9.94009 -14.7125,-22.92743 -14.7125,-36.72821 0,-18.46745 7.6851,-35 21.789,-45.72503 14.0215,-10.99963 32.484,-15.99774 54.0263,-15.99774 15.5857,0 31.5954,2.67417 47.9024,7.86281 11.9561,3.80416 22.7525,8.86219 33.5529,13.92611 l 10.4484,-21.72846 c -11.3725,-6.08994 -23.075,-12.00491 -37.4389,-16.5269 -0.062,-0.0232 -0.1316,-0.0387 -0.1966,-0.0619 -17.2438,-5.7479 -37.8335,-8.74297 -61.7833,-8.77007 z m 616.8797,2.07156 v 29.48536 h 85.4774 c 6.4149,-0.003 11.6159,5.19784 11.6127,11.6127 v 314.08748 h 31.5871 V 761.11982 c 0,-6.41486 5.1979,-11.61588 11.6127,-11.6127 h 88.5923 v -29.48536 z m -245.5301,25.31206 c 27.2945,0 52.558,6.87108 74.8928,20.48861 22.4992,13.5079 40.5411,32.13762 53.6332,55.29638 13.5418,22.99254 20.3525,48.84637 20.3525,76.75279 0,27.90255 -6.6064,53.7591 -19.8082,76.76782 -13.0903,22.81471 -30.943,41.23948 -53.0888,54.75208 -22.345,13.6342 -47.6268,20.5037 -74.9382,20.5037 -27.6335,0 -53.2379,-6.8483 -75.9211,-20.4583 -22.5041,-13.5024 -40.5655,-31.94321 -53.6785,-54.79748 -13.1856,-22.98039 -19.8233,-48.655 -19.8233,-76.23859 0,-27.85346 6.4179,-53.65411 19.2336,-76.64688 0.01,-0.0155 0.023,-0.031 0.031,-0.0465 13.079,-23.16859 30.9308,-41.81837 53.119,-55.35693 22.6831,-13.97597 48.3321,-21.01783 75.9968,-21.01783 z m 719.7307,0 c 27.2947,0 52.5711,6.86977 74.908,20.48861 22.5013,13.50921 40.528,32.14118 53.6181,55.29638 13.5397,22.98898 20.3676,48.84188 20.3676,76.75279 -1e-4,27.90255 -6.6064,53.75917 -19.8081,76.76782 -13.0904,22.81471 -30.943,41.23948 -53.0889,54.75208 -22.3471,13.6356 -47.642,20.5037 -74.9533,20.5037 -27.6335,0 -53.2248,-6.8496 -75.906,-20.4583 -22.502,-13.5011 -40.5785,-31.93965 -53.6937,-54.79748 -13.1875,-22.98395 -19.8081,-48.65957 -19.8081,-76.23859 0,-27.85346 6.4179,-53.65411 19.2336,-76.64688 0.01,-0.0155 0.023,-0.031 0.031,-0.0465 13.077,-23.16503 30.9135,-41.81705 53.1039,-55.35693 22.6831,-13.97597 48.3322,-21.01783 75.9967,-21.01783 z"
         sodipodi:nodetypes="ccccccscscsccccsssscccccccccccscscsccccssssccccccscscscccccsscccsscccscccsccsccccccscssccccccccccccccccccccsssssssccccccccsssssssccccc" />
      <path
         id="path3818-3-8"
         style="font-style:normal;font-variant:normal;font-weight:normal;font-stretch:normal;font-size:67.4213px;line-height:1.25;font-family:'Reem Kufi';-inkscape-font-specification:'Reem Kufi, Normal';font-variant-ligatures:normal;font-variant-caps:normal;font-variant-numeric:normal;font-feature-settings:normal;text-align:start;letter-spacing:0px;word-spacing:0px;writing-mode:lr-tb;text-orientation:upright;text-anchor:start;fill:#000000;fill-opacity:1;stroke:#000000;stroke-width:13.049"
         d="m 2489.3782,729.25375 c -20.7897,1.0049 -38.6772,5.513 -54.0112,13.3364 -0.03,0.015 -0.061,0.031 -0.091,0.046 -14.9664,7.4831 -26.3917,17.7399 -35.0347,31.315 0,0.01 -0.01,0.01 -0.015,0.015 -8.1212,12.9587 -12.2779,28.141 -12.278,46.4962 1e-4,15.1514 2.8137,27.3351 7.9535,37.1364 5.8877,10.1814 13.1672,18.6921 22.0309,25.7355 9.6881,7.4172 20.1708,13.7135 31.4964,18.9009 12.3319,5.1353 24.3207,9.9305 35.9571,14.3798 12.6464,4.7035 24.462,10.1668 35.4278,16.3757 11.8972,6.5342 21.884,14.6318 29.561,24.3292 8.2658,10.441 12.4292,23.4749 12.4292,37.4691 0,16.32235 -4.6653,30.99975 -14.3647,42.05065 -8.5616,10.1369 -19.5357,17.7989 -32.3129,22.5903 -0.1004,0.037 -0.2013,0.072 -0.3027,0.1061 -12.3356,4.2403 -25.1494,6.3658 -38.2251,6.3658 -17.686,0 -36.0189,-3.8409 -54.8731,-11.2347 -13.8314,-5.4241 -25.7147,-11.9019 -36.6072,-18.9311 l -12.9131,22.802 c 12.8219,8.0296 27.1338,15.3401 44.0164,21.3353 20.6576,7.2138 42.4491,10.8265 65.5936,10.8265 24.6996,0 45.0576,-4.4356 61.5262,-12.8224 h 0.016 c 17.176,-8.9216 29.8162,-20.3068 38.7241,-34.4148 8.953,-14.5265 13.3819,-30.4422 13.3819,-48.67355 0,-22.1263 -4.3966,-38.6957 -12.1722,-50.5031 -0.026,-0.035 -0.052,-0.07 -0.077,-0.106 -8.463,-13.1645 -18.9887,-23.2323 -31.9954,-30.6648 -14.0857,-8.0489 -28.6692,-14.9087 -43.7594,-20.6095 l 0.1811,0.062 c -13.9383,-5.0034 -27.1915,-10.5547 -39.7674,-16.663 -0.081,-0.034 -0.1615,-0.07 -0.2416,-0.106 -13.01,-6.6908 -23.9475,-14.2853 -32.6607,-22.9986 -0.061,-0.06 -0.1215,-0.1201 -0.1812,-0.1812 -9.5181,-9.9508 -14.6973,-22.953 -14.6973,-36.7433 -1e-4,-18.46 7.6715,-34.9858 21.7739,-45.7099 14.0253,-11.0025 32.499,-15.9977 54.0413,-15.9977 15.5857,0 31.5825,2.6748 47.8873,7.8627 11.9457,3.8009 22.7481,8.8522 33.5529,13.9111 l 10.4636,-21.7133 c -11.3745,-6.0858 -23.0819,-12.0025 -37.454,-16.527 -0.066,-0.02 -0.1313,-0.041 -0.1967,-0.062 -17.249,-5.7497 -37.838,-8.758 -61.7832,-8.7851 z M 630.211,730.17615 479.6541,1086.5259 h 29.0015 l 36.1839,-87.79085 c 1.7882,-4.354 6.0288,-7.197 10.7357,-7.1974 h 141.9834 c 4.7662,6e-4 9.0476,2.9148 10.7962,7.3486 l 34.6718,87.63965 h 37.7564 z m 524.341,1.1491 1.013,255.0713 c 0.052,10.4059 -12.5595,15.61755 -19.8686,8.2106 L 877.8732,733.85045 v 352.67545 h 31.5418 l -0.998,-250.36875 c -0.038,-10.3569 12.4791,-15.5738 19.8081,-8.2559 l 257.3545,256.85555 V 731.32525 Z m 161.6857,0 v 355.20065 h 111.5757 c 23.7452,0 46.1304,-3.925 67.4233,-11.779 21.2828,-8.1989 39.9484,-19.7358 56.249,-34.7323 0.03,-0.026 0.061,-0.052 0.091,-0.077 16.5113,-14.8925 29.2219,-32.739 38.3462,-53.92035 0.01,-0.026 0.021,-0.051 0.031,-0.077 9.3881,-21.366 14.153,-45.2491 14.153,-72.0502 0,-21.6791 -3.5842,-43.3679 -10.8718,-65.2308 -0.016,-0.05 -0.032,-0.1006 -0.047,-0.151 -6.8252,-21.4505 -17.8233,-40.8594 -33.2051,-58.5322 -0.026,-0.026 -0.052,-0.051 -0.077,-0.077 -15.0987,-17.6688 -34.7019,-31.7573 -59.3941,-42.2926 -0.04,-0.015 -0.081,-0.03 -0.1208,-0.046 -24.2181,-10.6559 -54.4454,-16.2397 -90.8452,-16.2397 z m 394.5296,0 v 355.20065 h 31.058 V 961.90105 c 0,-6.4148 5.1979,-11.6159 11.6127,-11.6127 h 55.8559 9.39 c 3.947,0.01 7.6209,2.0159 9.7528,5.3376 l 84.2829,130.89995 h 36.3502 l -82.801,-132.01885 c -3.6898,-5.8797 -1.4279,-13.6619 4.8386,-16.6479 20.6372,-9.8424 34.2483,-23.1978 42.4741,-40.8563 8.737,-19.1122 13.0189,-38.4055 13.0189,-58.2752 0,-23.6034 -5.3751,-42.6739 -15.786,-58.2903 -0.026,-0.045 -0.052,-0.091 -0.077,-0.1363 -10.2575,-15.8526 -24.274,-27.6412 -42.9731,-35.8815 -0.046,-0.02 -0.091,-0.041 -0.1362,-0.062 -18.8162,-8.6108 -40.5671,-13.0341 -65.6391,-13.0341 z m 346.6273,0 v 355.20065 h 232.0122 v -29.4854 h -189.3416 c -6.4148,0 -11.6159,-5.1979 -11.6127,-11.6127 V 934.24525 c 0,-6.4148 5.1979,-11.6159 11.6127,-11.6127 h 161.1565 v -29.5006 h -161.1565 c -6.4148,0 -11.6159,-5.1979 -11.6127,-11.6127 v -109.0808 c 0,-6.4148 5.1979,-11.6159 11.6127,-11.6127 h 182.0232 v -29.5005 z m -698.4863,29.5005 h 65.246 c 17.9901,0 35.6849,3.0169 52.8771,8.9969 17.4064,6.0544 33.2191,15.4037 47.1615,27.8221 14.2001,12.2991 25.4525,28.0322 33.689,46.6927 8.8499,18.8989 13.0794,40.9677 13.0794,65.8961 0,30.5352 -6.7084,57.3785 -20.5188,79.6559 -13.2601,21.94615 -31.7999,38.94405 -54.8731,50.29145 -23.0058,11.3144 -49.2435,16.8596 -78.2044,16.8596 h -58.4567 c -6.4148,0 -11.6159,-5.1979 -11.6127,-11.6127 V 772.43845 c 0,-6.4148 5.1979,-11.6159 11.6127,-11.6127 z m 394.5297,0 h 57.9426 c 19.3451,0 35.9394,4.2076 48.6282,13.775 11.8423,8.3528 20.7209,19.2327 25.7354,32.0257 4.9774,11.5414 7.7116,22.9867 7.7116,34.1879 0,11.1118 -2.4605,22.6134 -7.0463,34.4601 -0.015,0.04 -0.03,0.081 -0.046,0.1208 -5.091,12.7275 -14.2641,23.6094 -26.5066,32.2978 -0.021,0.015 -0.041,0.031 -0.062,0.046 -13.2193,9.2535 -30.6086,13.0643 -51.5465,13.0643 h -54.8126 c -6.4148,0 -11.6159,-5.1979 -11.6127,-11.6127 v -136.7517 c 0,-6.4148 5.1979,-11.6159 11.6127,-11.6127 z m -1125.2078,53.2552 c 4.7368,0.04 8.974,2.9546 10.7055,7.3638 l 51.1533,130.4917 c 2.9883,7.6162 -2.6298,15.8509 -10.8113,15.8465 H 574.3702 c -8.264,0 -13.8833,-8.3869 -10.7357,-16.0279 l 53.7541,-130.4918 c 1.8074,-4.3839 6.0999,-7.2276 10.8416,-7.1823 z"
         sodipodi:nodetypes="sssccscccccsscscsscccscccsccsccccscscssccscsscccccccccccccccccccccccscccscssccccccccccccccccccccsccscccccccccccccccccccccssccscsscccccsccsscscscccsccccccscc" />
      <path
         d="m 2134.32,634.04194 v 25.1832 h 72.7094 v -25.1832 z"
         style="font-style:normal;font-variant:normal;font-weight:normal;font-stretch:normal;font-size:67.4213px;line-height:1.25;font-family:'Reem Kufi';-inkscape-font-specification:'Reem Kufi, Normal';font-variant-ligatures:normal;font-variant-caps:normal;font-variant-numeric:normal;font-feature-settings:normal;text-align:start;letter-spacing:0px;word-spacing:0px;writing-mode:lr-tb;text-orientation:upright;text-anchor:start;fill:#000000;fill-opacity:1;stroke:#000000;stroke-width:13.0782"
         id="path1349-8"
         sodipodi:nodetypes="ccccc" />
    </g>
  </g>
</svg>
