<?xml version="1.0" encoding="UTF-8" standalone="no"?>
<!-- Generator: Adobe Illustrator 19.0.0, SVG Export Plug-In . SVG Version: 6.00 Build 0)  -->

<svg
   xmlns:dc="http://purl.org/dc/elements/1.1/"
   xmlns:cc="http://creativecommons.org/ns#"
   xmlns:rdf="http://www.w3.org/1999/02/22-rdf-syntax-ns#"
   xmlns:svg="http://www.w3.org/2000/svg"
   xmlns="http://www.w3.org/2000/svg"
   xmlns:sodipodi="http://sodipodi.sourceforge.net/DTD/sodipodi-0.dtd"
   xmlns:inkscape="http://www.inkscape.org/namespaces/inkscape"
   version="1.1"
   id="Capa_1"
   x="0px"
   y="0px"
   viewBox="0 0 508.053 612.57713"
   xml:space="preserve"
   sodipodi:docname="avatar.svg"
   width="508.05301"
   height="612.57715"
   inkscape:version="0.92.4 (5da689c313, 2019-01-14)"><metadata
   id="metadata77"><rdf:RDF><cc:Work
       rdf:about=""><dc:format>image/svg+xml</dc:format><dc:type
         rdf:resource="http://purl.org/dc/dcmitype/StillImage" /><dc:title></dc:title></cc:Work></rdf:RDF></metadata><defs
   id="defs75" /><sodipodi:namedview
   pagecolor="#ffffff"
   bordercolor="#666666"
   borderopacity="1"
   objecttolerance="10"
   gridtolerance="10"
   guidetolerance="10"
   inkscape:pageopacity="0"
   inkscape:pageshadow="2"
   inkscape:window-width="1920"
   inkscape:window-height="1017"
   id="namedview73"
   showgrid="false"
   fit-margin-top="0"
   fit-margin-left="0"
   fit-margin-right="0"
   fit-margin-bottom="0"
   inkscape:zoom="0.65259822"
   inkscape:cx="246.92503"
   inkscape:cy="440.15305"
   inkscape:window-x="-8"
   inkscape:window-y="-8"
   inkscape:window-maximized="1"
   inkscape:current-layer="Capa_1" />
<g
   id="g6"
   transform="translate(-1.686,101.15314)">
	<path
   style="fill:#acb3ba"
   d="m 255.936,321.504 c -0.128,0.128 -0.224,0.128 -0.224,0.128 v -0.245 c 0.096,-0.011 0.224,0.117 0.224,0.117"
   id="path2"
   inkscape:connector-curvature="0" />
	<path
   style="fill:#acb3ba"
   d="m 255.936,321.387 v 0.224 c 0,0 -0.128,0 -0.224,-0.107 0,0 0.096,-0.117 0.224,-0.117"
   id="path4"
   inkscape:connector-curvature="0" />
</g>

<path
   style="fill:#acb3ba"
   d="m 444.789,428.11814 -121.12,-43.648 v 0 l -0.011,0.021 c 0,0 -0.779,0.96 -0.779,0.853 -17.067,23.125 -42.859,34.539 -68.768,34.549 h -0.021 c -0.021,0 -0.021,0 -0.021,0 -25.824,-0.011 -51.627,-11.424 -68.789,-34.549 l -0.661,-0.832 -0.043,-0.021 -121.323,43.627 C 25.386,441.66514 0,477.70714 0,518.03814 v 94.539 h 508.053 v -94.539 c 0,-40.33 -25.387,-76.384 -63.264,-89.92"
   id="path16"
   inkscape:connector-curvature="0" />

<path
   style="fill:#dbb491;fill-opacity:1"
   d="m 343.893,391.76614 c -0.331,1.077 -0.747,2.133 -1.291,3.093 -0.309,0.747 -0.736,1.387 -1.163,2.016 -1.173,1.931 -29.76,45.227 -87.467,45.227 -57.28,0 -86.187,-43.307 -87.36,-45.109 -1.067,-1.707 -1.92,-3.413 -2.347,-5.227 l 20.267,-7.264 v -40.309 h 0.107 c 5.227,7.691 10.891,15.04 17.28,21.984 l 9.707,10.667 c 8.96,9.92 21.643,15.456 34.976,15.456 h 14.933 c 13.333,0 26.016,-5.547 34.987,-15.349 l 9.813,-10.773 c 6.411,-6.933 12.053,-14.293 17.28,-21.984 v 40.309 z"
   id="path20"
   inkscape:connector-curvature="0" />
<path
   style="fill:#f2f2f2;stroke-width:0.88130462"
   d="m 379.935,401.87453 c -1.067,1.6567 -2.123,2.98252 -3.083,4.0598 -6.933,8.04426 -46.293,49.79177 -122.891,49.79177 -79.147,0 -118.923,-45.0609 -123.2,-50.20575 -0.96,-1.23417 -1.92,-2.48543 -2.667,-3.64504 l 36.171,-10.10717 c 0.416,1.40815 1.269,2.73398 2.336,4.0598 1.173,1.40815 30.08,35.03606 87.36,35.03606 57.707,0 86.304,-33.63645 87.467,-35.12771 0.427,-0.49709 0.853,-0.98563 1.163,-1.56582 0.544,-0.74563 0.96,-1.56583 1.291,-2.40233 z"
   id="path22"
   inkscape:connector-curvature="0" />
<g
   style="opacity:0.1"
   id="g28"
   transform="matrix(1,0,0,0.90285888,-1.686,124.76426)">
	<g
   id="g26">
		<path
   style="fill:#40596b"
   d="m 325.312,243.061 c -5.205,7.669 -10.923,15.029 -17.237,21.941 l -9.803,10.741 c -9.003,9.835 -21.685,15.424 -35.008,15.424 h -14.923 c -12.352,0 -24.043,-5.003 -32.853,-13.557 h -0.021 l 66.432,60.096 c 40.139,-10.037 60.256,-40.373 61.237,-41.973 0.427,-0.64 0.853,-1.28 1.163,-2.027 0.544,-0.96 0.96,-2.016 1.291,-3.083 l -20.267,-7.264 V 243.06 h -0.011 z"
   id="path24"
   inkscape:connector-curvature="0" />
	</g>
</g>
<g
   id="g34"
   transform="translate(-1.686,101.15314)">
	<polygon
   style="fill:#97a1aa"
   points="106.827,424.565 106.827,511.424 82.72,511.424 "
   id="polygon30" />
	<polygon
   style="fill:#97a1aa"
   points="404.597,424.565 404.597,511.424 428.704,511.424 "
   id="polygon32" />
</g>

<g
   id="g42"
   transform="translate(-1.686,101.15314)">
</g>
<g
   id="g44"
   transform="translate(-1.686,101.15314)">
</g>
<g
   id="g46"
   transform="translate(-1.686,101.15314)">
</g>
<g
   id="g48"
   transform="translate(-1.686,101.15314)">
</g>
<g
   id="g50"
   transform="translate(-1.686,101.15314)">
</g>
<g
   id="g52"
   transform="translate(-1.686,101.15314)">
</g>
<g
   id="g54"
   transform="translate(-1.686,101.15314)">
</g>
<g
   id="g56"
   transform="translate(-1.686,101.15314)">
</g>
<g
   id="g58"
   transform="translate(-1.686,101.15314)">
</g>
<g
   id="g60"
   transform="translate(-1.686,101.15314)">
</g>
<g
   id="g62"
   transform="translate(-1.686,101.15314)">
</g>
<g
   id="g64"
   transform="translate(-1.686,101.15314)">
</g>
<g
   id="g66"
   transform="translate(-1.686,101.15314)">
</g>
<g
   id="g68"
   transform="translate(-1.686,101.15314)">
</g>
<g
   id="g70"
   transform="translate(-1.686,101.15314)">
</g>
<path
   id="path894-2"
   d="m 320.5409,359.71919 c -19.84996,-23.74214 -16.54852,-64.0852 -20.52804,-72.33166 h -93.59334 c -3.98905,8.24646 -0.67807,48.59111 -20.52803,72.33166 12.15611,15.26223 37.73715,25.77636 67.3247,25.77636 29.58755,0 55.16859,-10.51413 67.32471,-25.77636 z"
   style="fill:#dbb491;stroke-width:1.5879966"
   inkscape:connector-curvature="0" /><path
   id="path896-5"
   d="m 281.51906,382.10359 c 17.06619,-4.27489 30.98022,-12.2911 39.02184,-22.3844 -19.84996,-23.74214 -16.54852,-64.0852 -20.52804,-72.33166 h -49.55502 c 0,0.008 -1.01632,72.08075 31.06122,94.71606 z"
   style="fill:#cca483;stroke-width:1.5879966"
   inkscape:connector-curvature="0" /><path
   id="path898-4"
   d="m 193.82671,347.09779 c 15.53061,12.63886 33.72904,25.16974 59.29261,28.79355 25.62551,-3.63333 43.77948,-16.42306 59.32756,-29.11433 -12.93265,-23.77707 -8.93407,-52.13393 -12.43402,-59.39107 h -93.59334 c -3.51582,7.26508 0.40176,35.92525 -12.59281,59.71185 z"
   style="fill:#c69e7f;stroke-width:1.5879966"
   inkscape:connector-curvature="0" /><ellipse
   id="ellipse900-0"
   ry="18.466616"
   rx="33.960533"
   cy="-397.59149"
   cx="160.79366"
   style="fill:#cca483;stroke-width:1.58797967"
   transform="rotate(100.19518)" /><ellipse
   id="ellipse902-5"
   ry="33.960533"
   rx="18.466616"
   cy="-250.40013"
   cx="-100.56718"
   style="fill:#dbb491;stroke-width:1.58797967"
   transform="rotate(169.80482)" /><path
   id="path904-7"
   d="M 355.10047,115.579 H 253.11774 151.189 c 0,0 -57.150416,232.82253 101.92874,255.35938 C 412.2604,348.40153 355.10047,115.579 355.10047,115.579 Z"
   style="fill:#dbb491;stroke-width:1.5879966"
   inkscape:connector-curvature="0" /><path
   id="path906-9"
   d="M 253.11774,370.93838 C 412.2604,348.40153 355.10047,115.579 355.10047,115.579 H 331.2424 c 6.53302,97.25209 15.57508,148.91279 -21.93817,205.23268 -29.72253,44.62747 -56.18649,50.1267 -56.18649,50.1267 z"
   style="fill:#cca483;stroke-width:1.5879966"
   inkscape:connector-curvature="0" /><path
   inkscape:connector-curvature="0"
   style="fill:#333333;stroke-width:1.03627825"
   d="m 364.1769,236.52135 -18.15596,63.62697 -25.02875,25.36501 c -2.81784,-7.15701 -9.26644,-13.227 -17.11324,-18.29301 -29.7817,-19.221 -70.25166,-19.23199 -99.999,0.021 -7.81244,5.06701 -14.22667,11.12501 -17.04451,18.27201 l -24.67329,-24.64 -18.4996,-64.35199 3.98622,38.741 c 6.63222,36.70399 30.82443,101.557 66.89474,117.621 11.8781,5.30099 25.13183,8.86399 39.34669,8.86399 14.29538,0 27.54804,-3.563 39.42721,-8.86399 36.04776,-16.064 60.25177,-80.91701 66.89475,-117.621 z m -68.43038,116.51197 c 0,0 -9.01517,14.976 -25.08566,0 0,0 -8.37298,-8.98099 -16.73523,-9.56799 -8.35043,0.597 -16.73525,9.56799 -16.73525,9.56799 -16.0823,14.976 -25.08566,0 -25.08566,0 -3.71129,-7.09299 -4.22675,-12.693 -3.12709,-17.056 2.03927,-8.12799 10.46918,-13.269 19.36942,-12.544 16.2885,1.35501 25.57858,-8.736 25.57858,-8.736 0,0 9.30082,10.09101 25.57858,8.736 8.90024,-0.725 17.34197,4.41601 19.35869,12.544 1.11037,4.362 0.59493,9.96201 -3.11638,17.056"
   id="path36-2-3" /><path
   id="path914-0"
   d="m 346.5136,207.93253 c -35.17541,-12.32471 -83.30111,0.94923 -83.30111,0.94923 -4.58755,1.12833 -7.65785,1.34454 -9.24673,1.35861 -0.008,0 -1.27929,0 -1.27929,0 h -1.27929 c -1.58889,-0.0143 -4.65918,-0.23028 -9.2544,-1.35861 0,0 -48.1257,-13.26625 -83.30111,-0.94923 0,0 -1.0503,4.94702 0,11.69145 0,0 0.0857,1.02088 1.223,1.452 0,0 3.83915,1.20764 4.83189,5.11972 0,0 2.20037,8.8156 2.91167,12.86328 0,0 1.19357,7.80113 5.47152,12.1584 0,0 3.7317,4.77431 13.29569,6.89538 0,0 12.43985,3.19951 27.93463,1.35221 0,0 11.06587,-1.35861 16.75361,-6.70093 0,0 6.27748,-5.37815 9.75716,-15.78262 0,0 1.08611,-3.19951 3.4157,-10.14608 0,0 1.12196,-4.73848 8.22586,-5.04808 7.11159,0.3096 8.22585,5.04808 8.22585,5.04808 2.32959,6.94657 3.4157,10.14608 3.4157,10.14608 3.47969,10.41216 9.75716,15.78262 9.75716,15.78262 5.68775,5.34232 16.75362,6.70093 16.75362,6.70093 15.49478,1.8473 27.93462,-1.35221 27.93462,-1.35221 9.55631,-2.12107 13.2957,-6.89538 13.2957,-6.89538 4.28562,-4.35727 5.47152,-12.1584 5.47152,-12.1584 0.71129,-4.05535 2.91167,-12.86328 2.91167,-12.86328 0.99274,-3.91208 4.83189,-5.11972 4.83189,-5.11972 1.13601,-0.42472 1.22173,-1.452 1.22173,-1.452 1.07077,-6.74443 0.0217,-11.69145 0.0217,-11.69145 z m -108.03622,19.11135 c 0,0 -4.10526,18.55869 -11.00191,23.61318 0,0 -6.6728,5.50094 -19.73053,5.72355 0,0 -19.45037,0.84816 -28.16491,-5.64425 0,0 -5.73762,-4.06942 -7.58619,-17.00563 0,0 -2.46648,-15.11484 0.71128,-19.4286 0,0 4.31377,-7.19731 17.36512,-6.97471 0,0 11.11577,-0.2226 20.16932,0.67547 0,0 11.2245,0.86224 21.19786,4.09118 -0.006,-0.0127 10.85096,2.99226 7.03996,14.94981 z m 94.8915,6.68046 c -1.84859,12.93492 -7.58621,17.00564 -7.58621,17.00564 -8.71453,6.50008 -28.1649,5.64423 -28.1649,5.64423 -13.05773,-0.22261 -19.73053,-5.72355 -19.73053,-5.72355 -6.89538,-5.06217 -11.00191,-23.61318 -11.00191,-23.61318 -3.81101,-11.95755 7.03996,-14.96261 7.03996,-14.96261 9.97335,-3.22892 21.19786,-4.09117 21.19786,-4.09117 9.05228,-0.89935 20.16932,-0.67547 20.16932,-0.67547 13.05773,-0.22259 17.36511,6.9747 17.36511,6.9747 3.17777,4.32018 0.7113,19.44141 0.7113,19.44141 z"
   style="fill:#3b3b3b;stroke-width:1.27929223"
   inkscape:connector-curvature="0" /><path
   style="fill:#393c3d;fill-opacity:1;stroke-width:1.24968481"
   d="m 280.75688,0 c -1.0303,33.582712 -91.0682,37.123062 -104.221,83.402337 -24.1437,11.01842 -40.8824,34.949833 -40.8824,62.714853 l 10.1117,69.1914 14.4898,-66.22461 c 6.4817,-23.32716 31.0827,-37.10347 54.9467,-30.76758 4.2305,1.12312 8.268,2.84749 11.9841,5.11719 l 4.4195,2.69727 c 15.3689,9.39017 35.0143,8.79758 49.7612,-1.50196 20.1075,-14.07043 48.0754,-9.54378 62.4697,10.11133 2.1007,2.86895 3.8391,5.97528 5.1776,9.25196 l 16.1475,71.3164 0.4017,-97.07508 c 0.115,-27.786643 -31.7841,-46.607403 -43.6326,-58.579213 -3.7131,-5.638505 -8.1168,-9.513605 -13.2528,-9.611325 5.0108,-7.86891 3.1383,-17.89754 -1.433,-28.76758 -3.0534,7.78588 -7.9743,13.62439 -15.9682,16.25781 C 295.03448,23.026982 289.25658,11.138362 280.75688,0 Z"
   id="path1030-1"
   inkscape:connector-curvature="0"
   sodipodi:nodetypes="ccccccccccccsccccc" /></svg>